<?xml version="1.0" encoding="UTF-8"?>
<!-- Generator: visioncortex VTracer 0.6.2 -->
<svg version="1.1" xmlns="http://www.w3.org/2000/svg" width="854" height="1280">
<path d="M0 0 C1.31871094 -0.01933594 2.63742187 -0.03867187 3.99609375 -0.05859375 C7.5625 0.4375 7.5625 0.4375 9.87109375 2.13671875 C14.07571922 7.85617464 16.48578681 14.47656913 17.98046875 21.36328125 C18.97365204 24.90274653 20.64417065 28.1349107 22.20703125 31.453125 C24.10399775 35.62973136 25.69631061 39.90533962 27.31640625 44.1953125 C28.48713228 47.24140216 29.72591778 50.24593393 31 53.25 C32.93851691 57.86003552 34.75112635 62.50329963 36.5 67.1875 C36.75056152 67.85837646 37.00112305 68.52925293 37.25927734 69.22045898 C38.55328514 72.69691636 39.83322921 76.17816047 41.1015625 79.6640625 C43.50226599 86.22245606 46.02432268 92.55181357 49.2734375 98.74609375 C52.81729533 106.14523934 55.52313921 114.064531 58 121.875 C59.89228714 127.71882794 62.36721606 133.34531783 64.7265625 139.01171875 C66.94519467 144.34179048 69.08439851 149.7021452 71.21875 155.06640625 C72.0451097 157.13951212 72.87717515 159.21036768 73.71875 161.27734375 C75.27045076 165.09194146 76.73960624 168.89127496 78 172.8125 C79.84726924 178.49410108 82.22657465 183.9432377 84.5625 189.4375 C85.81638201 192.43980755 87.06525877 195.44414692 88.3125 198.44921875 C89.13472125 200.41484143 89.9677783 202.37597257 90.8125 204.33203125 C93.16169767 209.81593957 95.23180292 215.32269369 97.0625 221 C98.81098655 226.4168933 100.87124236 231.5534136 103.3125 236.6953125 C104.69744735 239.73354074 105.88614534 242.81280795 107.0625 245.9375 C108.97286417 250.99786904 111.09586741 255.90168525 113.3671875 260.80859375 C116.28723206 267.23078326 118.67401725 273.63896209 120.5625 280.4375 C122.82526724 287.07495058 125.73389717 293.42122324 128.63671875 299.796875 C128.98347656 300.56515625 129.33023437 301.3334375 129.6875 302.125 C129.99945313 302.80949219 130.31140625 303.49398438 130.6328125 304.19921875 C131.33694429 305.89446041 131.95676075 307.62503237 132.53515625 309.3671875 C133.51189808 312.28627144 134.64662692 315.05414324 135.875 317.875 C137.85945822 322.56766002 139.5588461 327.28267067 141.125 332.125 C142.94677455 337.74072596 145.02654007 343.10680871 147.5625 348.4375 C150.48122709 354.68135922 152.95682536 361.04365538 155.35107422 367.50219727 C156.70974011 371.16716636 158.09167415 374.81559135 159.5625 378.4375 C161.58014183 383.40594301 163.44076752 388.43047661 165.28125 393.46679688 C166.86559311 397.75055066 168.64232091 401.91095554 170.51855469 406.07446289 C172.34771139 410.21487629 174.01319263 414.42013302 175.6875 418.625 C176.03425781 419.48802734 176.38101562 420.35105469 176.73828125 421.24023438 C178.48166414 425.60537122 180.08559246 429.9739572 181.5625 434.4375 C182.18632999 435.88468454 182.83092192 437.32317084 183.5 438.75 C184.88489707 441.79575149 186.05589967 444.80968203 187.0625 448 C188.25353544 451.74232448 189.84465085 455.06953012 191.66015625 458.54296875 C193.01629818 461.39027973 193.71149823 464.40580619 194.5625 467.4375 C195.1257883 468.73803329 195.71140051 470.02900479 196.3125 471.3125 C198.36067183 475.76039555 199.96573008 480.31421846 201.5625 484.9375 C203.40048958 490.25050142 205.32051752 495.4351425 207.69921875 500.53515625 C208.58049939 502.47716382 209.3322531 504.43420236 210.0625 506.4375 C211.97399033 511.65535197 214.27683057 516.69785532 216.63671875 521.7265625 C218.56680684 525.90244082 219.93307809 529.7862164 220.9453125 534.296875 C221.96500468 537.83352891 223.63836228 541.06146646 225.20703125 544.3828125 C226.67302958 547.68658972 227.87826187 551.02300898 229.0625 554.4375 C230.53570335 558.66894389 232.09439719 562.75776687 234 566.8125 C237.01054642 573.22296951 239.40786365 579.84248314 241.84570312 586.4855957 C244.05419496 592.49952357 246.35538025 598.45806987 248.8125 604.375 C249.11188477 605.10082275 249.41126953 605.82664551 249.71972656 606.57446289 C251.2895126 610.3782067 252.87162684 614.17640405 254.46875 617.96875 C257.26128567 624.62792985 259.89750238 631.15592322 261.828125 638.125 C262.98251277 641.76009342 264.62449264 645.14525078 266.2421875 648.59375 C276.8796983 671.50531173 276.8796983 671.50531173 278.5625 681.4375 C279.5525 681.1075 280.5425 680.7775 281.5625 680.4375 C282.31535117 678.38426954 283.04903811 676.3220965 283.6875 674.23046875 C286.25516765 666.03456531 289.56541989 658.25603348 293.50390625 650.63671875 C294.93763477 647.65816098 295.74838246 644.63581891 296.5625 641.4375 C298.96317217 633.21914053 302.40359629 625.37974922 305.70458984 617.49414062 C306.47369102 615.65039893 307.23171602 613.80204607 307.98828125 611.953125 C310.03557419 606.95849084 312.19127061 602.1015274 314.65625 597.30078125 C316.66691796 593.16677859 318.17903599 588.8950448 319.34765625 584.453125 C320.9170222 578.89606225 323.20849687 573.59446647 325.375 568.25 C325.80103516 567.18974609 326.22707031 566.12949219 326.66601562 565.03710938 C333.62938641 547.74983032 333.62938641 547.74983032 337.1875 539.8125 C338.31140655 537.05382028 339.18141041 534.41661986 340 531.5625 C341.18177292 527.49058811 342.68058552 523.75394902 344.46484375 519.9140625 C345.76393467 516.98301751 346.87818453 514.00323012 348 511 C349.87189291 506.05820271 352.0182307 501.39756103 354.43359375 496.703125 C356.80162387 491.950677 358.44255947 487.27452792 359.4375 482.0625 C360.34196748 477.67471149 362.12524312 474.16620744 364.2109375 470.2265625 C365.73163273 467.08848044 366.86676074 463.9223607 368 460.625 C370.40499467 453.66037822 373.39547336 447.082764 376.5625 440.4375 C378.51769955 436.26119377 379.86259863 432.22065051 380.91015625 427.71875 C382.00422128 423.89279805 383.63870674 420.30019604 385.20703125 416.6484375 C386.57143113 413.41634326 387.82646012 410.15810909 389.0625 406.875 C391.32221343 400.94147574 393.88873384 395.19352437 396.5625 389.4375 C398.56956229 384.9602072 400.23169518 380.4946138 401.7421875 375.8359375 C402.89454032 372.46667736 404.23888907 369.18503972 405.59765625 365.89453125 C406.29752813 364.11226642 406.93717616 362.30597799 407.5390625 360.48828125 C408.53156338 357.52971948 409.65989586 354.6860036 410.875 351.8125 C411.31070313 350.77480469 411.74640625 349.73710938 412.1953125 348.66796875 C413.10303338 346.52315399 414.01446362 344.37990512 414.9296875 342.23828125 C417.51303932 336.15249141 417.51303932 336.15249141 419.5625 329.875 C420.43606481 326.87212096 421.47994337 324.37520655 422.8125 321.5625 C425.06626591 316.75667562 426.85281587 311.8910245 428.5625 306.875 C430.44248675 301.37717344 432.53847022 296.29444328 435.27734375 291.16015625 C437.34728995 286.7748903 438.83117268 282.19041278 440.40234375 277.60766602 C441.90345821 273.24698653 443.54469111 269.05056651 445.5 264.87109375 C446.99579597 261.44506106 448.26884805 257.94397764 449.5625 254.4375 C451.43011688 249.38261536 453.37990784 244.41740955 455.625 239.515625 C457.90761059 234.45583818 460.03860065 229.35846427 461.5 224 C463.01720395 218.9129044 465.31802778 214.2389659 467.5625 209.4375 C469.10443584 206.06614877 470.47046556 202.77934221 471.4375 199.1875 C472.98372092 194.03343025 475.28778063 189.30467731 477.5625 184.4375 C479.17112997 180.84901776 480.62638883 177.30660997 481.8125 173.5625 C484.8316712 164.26536965 488.81425076 155.19729721 492.875 146.3125 C494.00751609 143.81809748 494.80129116 141.60173095 495.5625 138.9375 C496.37173546 136.1051759 497.28155989 133.7200788 498.5 131.0625 C500.17154276 127.4121456 501.49228373 123.76279264 502.72265625 119.9453125 C505.07621797 112.91746773 507.77381707 106.01451251 510.9375 99.3125 C514.36083924 91.95665397 516.99900616 84.29391999 519.7512207 76.66894531 C520.75403933 73.91066596 521.78610015 71.16398371 522.82128906 68.41772461 C523.59215913 66.35826244 524.34631619 64.2932238 525.09765625 62.2265625 C525.60677083 60.83854167 526.11588542 59.45052083 526.625 58.0625 C527.00881836 56.99708984 527.00881836 56.99708984 527.40039062 55.91015625 C529.33693609 50.66306391 529.33693609 50.66306391 531.5625 48.4375 C532.26166889 46.44862914 532.92450144 44.44682881 533.5625 42.4375 C534.31831843 40.63944773 535.08973581 38.84788893 535.875 37.0625 C537.91624484 32.25184694 539.52401762 27.43894452 541 22.4375 C545.84313329 6.15686671 545.84313329 6.15686671 550.5625 1.4375 C555.23095228 1.29323386 559.89115953 1.39541585 564.5625 1.4375 C564.5625 8.0375 564.5625 14.6375 564.5625 21.4375 C563.5725 21.7675 562.5825 22.0975 561.5625 22.4375 C561.4696875 23.5821875 561.4696875 23.5821875 561.375 24.75 C560.44133243 28.98741435 558.79925093 32.46915105 556.953125 36.37890625 C555.52236659 39.52577095 554.27824682 42.70192064 553.0625 45.9375 C551.48571042 50.13066598 549.78588121 54.19848353 547.875 58.25 C546.43346588 61.34347849 545.24866242 64.23292239 544.5 67.5625 C543.60110355 71.27793868 542.3645884 74.31136192 540.765625 77.75390625 C539.26171184 81.10841384 537.91200733 84.51894526 536.5625 87.9375 C534.04997345 94.27673754 531.39945422 100.52721878 528.5 106.69921875 C526.57910377 110.85880654 525.142784 114.77913527 524.14428711 119.24584961 C523.52645257 121.5732943 522.71665237 123.71912336 521.80859375 125.94921875 C521.4513623 126.82811768 521.09413086 127.7070166 520.72607422 128.61254883 C518.70552786 133.51807587 516.67130547 138.4176621 514.625 143.3125 C513.99948242 144.81103516 513.99948242 144.81103516 513.36132812 146.33984375 C512.73581055 147.83837891 512.73581055 147.83837891 512.09765625 149.3671875 C511.68394775 150.35912109 511.27023926 151.35105469 510.84399414 152.37304688 C509.95633224 154.495724 509.06461751 156.61670914 508.16967773 158.73632812 C507.72180908 159.80044922 507.27394043 160.86457031 506.8125 161.9609375 C506.40644531 162.92177246 506.00039063 163.88260742 505.58203125 164.87255859 C504.44795542 167.59856189 504.44795542 167.59856189 503.5 171.1875 C502.7273961 173.86586018 501.89691579 175.87386445 500.625 178.3125 C499.24472344 180.96726551 498.14125206 183.51969248 497.25 186.375 C494.31600514 195.64448924 490.32912859 204.68233482 486.25 213.5 C484.79493935 216.69746521 483.95567035 219.83334068 483.1875 223.26953125 C481.86304466 227.86373571 479.60456058 232.12720125 477.5625 236.4375 C476.00799341 239.82974954 474.64389949 243.12934479 473.6875 246.75 C472.75098287 249.81969505 471.73616538 252.13647179 470.25 254.9375 C467.76899854 259.72488698 466.07573827 264.64637807 464.43823242 269.76318359 C462.81663421 274.79058092 460.89666683 279.61698238 458.81640625 284.46875 C457.47570553 287.6429947 456.22962098 290.84367566 455 294.0625 C449.08063236 309.54534598 449.08063236 309.54534598 446.4375 314.5 C445.02784559 317.22171736 444.23520948 319.61259787 443.6875 322.625 C442.46013152 329.0051046 439.36637693 334.62678453 436.5625 340.4375 C435.11281909 343.62908998 433.76711463 346.81468179 432.671875 350.1484375 C431.41993242 353.86018276 430.01566774 357.4884837 428.5625 361.125 C428.17191406 362.11983398 428.17191406 362.11983398 427.7734375 363.13476562 C426.57313809 366.14460734 425.36761254 368.72983119 423.5625 371.4375 C423.12340791 373.29519732 422.68493666 375.15304414 422.25 377.01171875 C420.83781489 381.99448554 418.61203641 386.69058522 416.5625 391.4375 C415.70505995 393.4777941 414.85083604 395.5194431 414 397.5625 C413.38125 399.0475 413.38125 399.0475 412.75 400.5625 C411.31675069 404.03247201 409.91592569 407.51430017 408.53125 411.00390625 C407.87182243 412.66045213 407.2048512 414.3140105 406.53125 415.96484375 C404.90413341 419.9648387 403.36889162 423.94560102 402.0625 428.0625 C400.88037159 431.72516017 399.36112461 435.03762572 397.52734375 438.41796875 C396.2852213 441.01787688 395.47288256 443.70310096 394.5625 446.4375 C393.45729878 449.24615649 392.29147166 452.02881816 391.125 454.8125 C386.9271692 464.77010723 386.9271692 464.77010723 383.55078125 475.0234375 C382.53560183 478.53042094 381.23024996 481.72705549 379.75 485.0625 C377.69269594 489.75166483 375.75153784 494.45936756 373.9375 499.25 C372.28431413 503.60935638 370.52206003 507.87804612 368.6015625 512.125 C364.4379027 521.0861202 364.4379027 521.0861202 361.5625 530.5 C360.62199146 534.77184254 358.7774634 538.50665385 356.91796875 542.44921875 C355.50125986 545.57251069 354.2695091 548.72769346 353.0625 551.9375 C351.53973189 555.98235279 349.91591194 559.9087511 348.0625 563.8125 C345.75643363 568.75716896 344.0396286 573.83173497 342.37158203 579.01538086 C340.97752696 583.30940107 339.36390273 587.38932403 337.45703125 591.4765625 C336.58938287 593.37856899 335.84214187 595.28687421 335.125 597.25 C333.51627357 601.64138835 331.71061577 605.94311855 329.8984375 610.25390625 C328.97866979 612.44575036 328.06771005 614.6413046 327.1640625 616.83984375 C326.71804688 617.92394531 326.27203125 619.00804687 325.8125 620.125 C325.20148438 621.61580078 325.20148438 621.61580078 324.578125 623.13671875 C323.5625 625.4375 323.5625 625.4375 322.5625 626.4375 C322.28837957 627.91238712 322.04373495 629.39278395 321.8125 630.875 C320.89605552 635.6744537 319.21297359 639.39145541 316.91796875 643.671875 C315.35649328 646.85782495 314.21365716 650.08207661 313.0625 653.4375 C311.29646955 658.55289856 309.25919733 663.27601832 306.7578125 668.06640625 C304.17742646 673.18501517 302.11088146 678.48389105 300.5625 684 C299.51136291 687.61328375 298.06933567 690.83625043 296.5 694.24609375 C295.42729686 696.62202103 295.42729686 696.62202103 294.5625 700 C292.98290496 705.42985795 291.35706482 710.24112345 286.5625 713.4375 C283.34765625 713.73828125 283.34765625 713.73828125 279.625 713.75 C278.39910156 713.76675781 277.17320312 713.78351562 275.91015625 713.80078125 C272.22665574 713.40105482 271.02669246 713.1556772 268.5625 710.4375 C267.23939024 707.85387921 266.0871659 705.3651041 265 702.6875 C264.70931641 701.9965625 264.41863281 701.305625 264.11914062 700.59375 C263.53869 699.21209571 262.96369971 697.82813433 262.39428711 696.44189453 C261.61205399 694.55691245 260.791623 692.68791152 259.96875 690.8203125 C258.62803619 687.59515096 257.58983408 684.41664424 256.625 681.0625 C255.25551064 676.51476174 253.71493182 672.25598539 251.703125 667.9609375 C250.17403825 664.5780949 248.80758415 661.13725045 247.4375 657.6875 C247.05682373 656.729646 247.05682373 656.729646 246.66845703 655.75244141 C245.60704285 653.07750929 244.54863972 650.40177128 243.5078125 647.71875 C242.6377962 645.61920653 241.65200214 643.6792461 240.5625 641.6875 C239.07333106 638.77486075 238.18228772 636.14711496 237.5625 632.9375 C236.80261605 629.04476117 235.49458681 625.95266297 233.63671875 622.46484375 C230.64335378 616.81554769 228.28388706 610.99718133 226.46875 604.87109375 C225.65640855 602.68967685 224.71802977 600.74040569 223.65234375 598.67578125 C221.58672831 594.61862565 220.06781346 590.49849704 218.625 586.1875 C215.53254132 577.20282582 211.99041845 568.50063013 208 559.875 C205.90123727 555.32330832 204.18721832 550.70677826 202.52734375 545.98046875 C201.6711401 543.72383483 200.70514876 541.68329166 199.5625 539.5625 C197.20267953 535.09272241 195.94382158 530.3405194 194.58984375 525.48828125 C193.56955145 522.45843987 192.23412569 520.14742927 190.5625 517.4375 C189.79144294 515.57933423 189.06551759 513.70207521 188.375 511.8125 C185.87662502 505.14762771 183.1348106 498.60307464 180.3293457 492.06201172 C178.55349743 487.89648464 176.94769833 483.75316234 175.5625 479.4375 C173.80961813 474.73859818 171.97532715 470.12172045 169.625 465.6875 C167.23632082 461.04955871 165.63458253 456.1622655 163.92578125 451.2421875 C162.10097471 446.05731283 159.98965431 440.99041508 157.89453125 435.91015625 C156.5625 432.4375 156.5625 432.4375 155.59375 429.00390625 C154.42413508 424.95898797 152.89239348 421.18315701 151.25 417.3125 C148.60828204 411.00639693 146.0883699 404.67777723 143.703125 398.26953125 C142.58863346 395.38170113 142.58863346 395.38170113 141.06640625 392.50390625 C139.46699664 389.24277237 138.3515848 386.02246051 137.25 382.5625 C133.69358879 371.63747832 129.9939836 360.79505152 124.6484375 350.59765625 C123.31113723 347.93748702 122.30096665 345.22518829 121.30859375 342.421875 C120.49754543 340.26474126 119.5424035 338.21053048 118.5625 336.125 C117.14035494 332.98354525 116.12854507 329.97287719 115.3125 326.625 C112.51028469 315.70867771 107.79487977 305.05416336 103 294.875 C98.63575927 285.53996304 95.2573787 275.66106977 92.0625 265.87109375 C90.62968355 261.53580864 88.95478407 257.33331135 87.1875 253.125 C86.88078369 252.38644775 86.57406738 251.64789551 86.25805664 250.88696289 C84.91854626 247.66478381 83.56694342 244.44800031 82.20703125 241.234375 C77.67753488 230.50430593 73.56598633 219.64978343 70 208.5625 C68.32176421 203.43128066 66.34954874 198.79529921 63.8203125 194.0390625 C61.7592315 189.7760813 60.29826784 185.30930154 58.7734375 180.83203125 C57.51115226 177.29356068 56.06249584 173.88136801 54.5625 170.4375 C51.5235116 163.05591343 48.6109404 155.66954704 46 148.125 C44.59800965 144.12441607 43.11064581 140.36863796 41.125 136.625 C38.41659442 131.4807328 36.60706456 126.1095508 34.72949219 120.6237793 C33.17439372 116.10017736 31.45546415 111.74515801 29.42578125 107.41015625 C28.48702241 105.26502857 27.76871801 103.10695103 27.0625 100.875 C25.87146456 97.13267552 24.28034915 93.80546988 22.46484375 90.33203125 C21.10870182 87.48472027 20.41350177 84.46919381 19.5625 81.4375 C18.9992117 80.13696671 18.41359949 78.84599521 17.8125 77.5625 C15.76432817 73.11460445 14.15926992 68.56078154 12.5625 63.9375 C10.72477585 58.62526583 8.79556179 53.44600702 6.43359375 48.33984375 C3.62222407 42.2002158 1.86469714 36.05572544 0.5625 29.4375 C-2.7110914 32.25864381 -3.05658894 34.56419611 -3.71484375 38.6953125 C-4.58250379 41.98773061 -5.92560641 44.90596629 -7.33862305 47.99755859 C-9.14534132 52.00918766 -10.75244547 56.0986944 -12.375 60.1875 C-12.7248999 61.06656006 -13.0747998 61.94562012 -13.43530273 62.85131836 C-17.70553352 73.60038393 -21.7973993 84.40412996 -25.77270508 95.26513672 C-28.12215792 101.65293189 -30.61366709 107.97300103 -33.16796875 114.28125 C-34.14852238 116.71905718 -35.09532084 119.15861213 -36 121.625 C-37.21059691 124.92011585 -38.56893446 128.14242383 -39.9375 131.375 C-41.36215298 134.76381952 -42.71148465 138.11806221 -43.8125 141.625 C-45.45965725 146.78050912 -47.5907948 151.72439515 -49.67480469 156.71435547 C-52.01908796 162.35367278 -54.19393637 168.04102671 -56.30786133 173.77001953 C-57.75847619 177.68256273 -59.29639581 181.53878831 -60.9375 185.375 C-62.97220103 190.16828608 -64.73298437 195.0203159 -66.4375 199.9375 C-68.85003592 206.89033181 -71.52760835 213.67573254 -74.4375 220.4375 C-76.11544194 224.43284347 -77.7785412 228.43424205 -79.4375 232.4375 C-79.79972656 233.30375 -80.16195312 234.17 -80.53515625 235.0625 C-82.18762329 239.08371256 -83.67051635 243.07131651 -84.875 247.25 C-87.21720607 255.3274458 -90.31842695 263.13367316 -93.875 270.75 C-96.35893955 276.07160466 -98.39671977 281.52182804 -100.38256836 287.04418945 C-101.50654096 290.13369062 -102.60307181 292.68585771 -104.4375 295.4375 C-104.93236991 297.3738582 -105.42349734 299.31142158 -105.87939453 301.25732422 C-106.7790676 304.77179511 -108.07277731 308.11815721 -109.375 311.5 C-109.62701172 312.16837891 -109.87902344 312.83675781 -110.13867188 313.52539062 C-111.79392976 317.88155524 -113.58973136 322.15978905 -115.4375 326.4375 C-116.06883325 328.0183187 -116.69447938 329.6014294 -117.3125 331.1875 C-118.75526078 334.8358606 -120.33033297 338.38757731 -122 341.9375 C-123.98462134 346.23347912 -125.41816829 350.47650109 -126.6875 355.02734375 C-127.69848258 358.2761784 -129.10846811 361.28158731 -130.5390625 364.36328125 C-131.56870556 366.61020892 -131.56870556 366.61020892 -132.375 369.8125 C-133.57342333 373.90123841 -135.27882392 377.55065285 -137.07421875 381.40625 C-140.04968009 388.02217551 -142.59234106 394.81952669 -144.83984375 401.71484375 C-146.4829877 406.68608587 -148.40586113 411.52529228 -150.375 416.375 C-150.70951172 417.20451172 -151.04402344 418.03402344 -151.38867188 418.88867188 C-152.06347071 420.56201697 -152.73908697 422.23503266 -153.41552734 423.90771484 C-155.97074943 430.23289671 -158.50616746 436.56346603 -160.9375 442.9375 C-166.82734963 458.29061412 -173.22644002 473.41927593 -179.83203125 488.4765625 C-180.70241324 490.46272051 -181.57028559 492.44995719 -182.4375 494.4375 C-182.71343994 495.0660791 -182.98937988 495.6946582 -183.27368164 496.34228516 C-184.63156237 499.46285985 -185.8720637 502.56074379 -186.875 505.8125 C-188.16850047 509.80873565 -189.78847446 513.57038383 -191.53515625 517.38671875 C-192.53167614 519.56565613 -192.53167614 519.56565613 -193.4375 522.4375 C-194.25876779 524.90130337 -195.17662387 527.14370419 -196.25 529.5 C-199.32921511 536.30848674 -201.89598629 543.32121158 -204.515625 550.31640625 C-209.1839449 562.66115358 -214.39106623 574.79104091 -219.49560547 586.95996094 C-222.50793861 594.15010423 -225.44161373 601.31999523 -228 608.6875 C-229.97756411 614.36732347 -232.38082154 619.71874549 -234.96484375 625.14453125 C-237.00847251 629.71423695 -238.58338996 634.41414307 -240.2109375 639.14453125 C-241.62357416 642.9370558 -243.353927 646.43109886 -245.32421875 649.9609375 C-246.58524376 652.55563271 -246.58524376 652.55563271 -247.27734375 656.015625 C-248.58338032 661.56741357 -250.98412967 666.6262757 -253.3125 671.8125 C-256.16958935 678.23883152 -258.98067009 684.66194453 -261.54125977 691.21313477 C-262.46553628 693.50708284 -263.46695664 695.75316926 -264.5 698 C-266.22788799 701.77849436 -267.45607693 705.57916528 -268.53125 709.58984375 C-269.4375 711.4375 -269.4375 711.4375 -271.015625 712.68359375 C-274.55404014 713.78506814 -278.02352377 713.64665493 -281.6875 713.5625 C-282.43257813 713.55347656 -283.17765625 713.54445313 -283.9453125 713.53515625 C-285.77618059 713.51168358 -287.60688238 713.47581525 -289.4375 713.4375 C-289.4375 710.4675 -289.4375 707.4975 -289.4375 704.4375 C-288.4475 704.4375 -287.4575 704.4375 -286.4375 704.4375 C-286.540625 703.65375 -286.64375 702.87 -286.75 702.0625 C-286.3794934 697.76462343 -284.93475789 695.22967299 -282.9296875 691.46875 C-281.17725756 687.90883996 -279.79684395 684.28632114 -278.4375 680.5625 C-276.682877 675.7634355 -274.88033411 671.01466275 -272.875 666.3125 C-271.0470732 662.0063263 -269.42359368 657.66443624 -267.875 653.25 C-266.28947397 648.74376811 -264.6021654 644.37760837 -262.6015625 640.04296875 C-260.63131512 635.63305262 -258.83941621 631.14871105 -257.01538086 626.67675781 C-255.45803693 622.87169664 -253.85695874 619.10487369 -252.125 615.375 C-250.66609634 612.16908985 -249.82758864 609.02228094 -249.0546875 605.578125 C-248.03528015 602.04245902 -246.36297187 598.81566047 -244.79296875 595.49609375 C-243.3197451 592.17178794 -242.12073485 588.81272649 -240.9375 585.375 C-239.15856515 580.25077256 -237.07518429 575.53593782 -234.5625 570.73828125 C-233.10551567 567.75854593 -232.09820929 564.72171851 -231.10546875 561.5625 C-229.43996037 556.26404059 -227.31769304 551.13269678 -225.23950195 545.98632812 C-224.84251099 545.0030957 -224.84251099 545.0030957 -224.4375 544 C-224.17090576 543.34064453 -223.90431152 542.68128906 -223.62963867 542.00195312 C-222.27909178 538.63544543 -221.01316224 535.27638851 -219.9375 531.8125 C-218.77561291 528.14913836 -217.2201144 524.77918595 -215.5625 521.3125 C-213.30826212 516.54798735 -211.47046886 511.8221069 -209.875 506.8125 C-208.12744415 501.35698912 -206.09575965 496.24802417 -203.6328125 491.08203125 C-201.94890402 487.3565213 -200.63743894 483.52412742 -199.33203125 479.65234375 C-198.4375 477.4375 -198.4375 477.4375 -196.4375 475.4375 C-195.68169219 473.5807966 -195.68169219 473.5807966 -195.0625 471.4375 C-193.71707321 467.18950273 -192.12452274 463.1005181 -190.40234375 458.9921875 C-189.35863697 456.34515611 -189.35863697 456.34515611 -188.52734375 453.15625 C-187.30498775 448.98534352 -185.74503125 445.06413515 -184.0625 441.0625 C-183.59505371 439.93823608 -183.59505371 439.93823608 -183.11816406 438.79125977 C-181.23318643 434.27545358 -179.2815467 429.79488297 -177.265625 425.3359375 C-176.14648606 422.77036427 -175.17841999 420.15991127 -174.21875 417.53125 C-173.3369063 415.16790888 -172.38922033 412.83604081 -171.4375 410.5 C-170.15362653 407.31949526 -168.98439646 404.14086177 -167.9375 400.875 C-166.71266698 397.10172408 -165.18979894 393.55702289 -163.5390625 389.953125 C-162.23822551 386.98241925 -161.08699049 383.96989824 -159.9375 380.9375 C-158.52704842 377.22216412 -157.08595626 373.55346858 -155.4375 369.9375 C-152.3087156 363.04399941 -149.43949108 355.97393911 -147.375 348.6875 C-146.40326138 345.3188061 -145.0959593 342.32730354 -143.63671875 339.1484375 C-141.87910763 335.17520586 -140.31283729 331.1276219 -138.72192383 327.08569336 C-137.22840608 323.32255449 -135.62551793 319.64966473 -133.875 316 C-131.47090341 310.85276755 -129.86745055 305.57384214 -128.24633789 300.14453125 C-126.96022854 295.90530329 -125.45921267 292.0878394 -123.33203125 288.21484375 C-122.32127607 286.20657473 -121.66590911 284.20903385 -121 282.0625 C-119.95934683 278.7605356 -118.6724515 275.81442482 -117.0625 272.75 C-113.30863297 265.49176767 -110.64145469 257.73868716 -108.44140625 249.87890625 C-107.50019469 246.65241838 -106.37725744 243.65259869 -105.0625 240.5625 C-104.62164062 239.52222656 -104.18078125 238.48195313 -103.7265625 237.41015625 C-102.65096489 234.92976297 -101.553118 232.46252267 -100.4375 230 C-98.30343391 225.26531085 -96.49553819 220.41629762 -94.68359375 215.55078125 C-93.4375 212.4375 -93.4375 212.4375 -91.9765625 209.5390625 C-90.18801402 205.93472876 -88.76961038 202.27008484 -87.375 198.5 C-87.11912109 197.82259766 -86.86324219 197.14519531 -86.59960938 196.44726562 C-85.39930295 193.22896332 -84.33175406 190.0589776 -83.40625 186.74609375 C-82.52211069 183.72647281 -81.46380028 181.21005629 -80 178.4375 C-77.39932576 173.38148332 -75.00299962 168.5109986 -73.5 163 C-72.6664681 160.20521655 -71.84003587 158.15279493 -70.5 155.625 C-69.03256757 152.80260259 -67.97634445 150.12628896 -67.125 147.0625 C-64.18434621 136.64095222 -59.90251202 126.46472711 -55.3984375 116.62890625 C-52.42419943 109.8461926 -49.93199478 102.84550357 -47.4375 95.875 C-45.69413104 91.0369761 -43.73961759 86.3088193 -41.734375 81.57421875 C-39.90094484 77.13974762 -38.22418337 72.64927127 -36.55078125 68.15234375 C-35.4375 65.4375 -35.4375 65.4375 -33.4375 62.4375 C-32.73866616 60.44851138 -32.07918607 58.44565424 -31.4375 56.4375 C-30.33823412 53.30308737 -29.2007686 50.18292598 -28.0625 47.0625 C-27.62550781 45.84433594 -27.62550781 45.84433594 -27.1796875 44.6015625 C-25.49047927 39.97846629 -23.61920977 35.58414208 -21.31323242 31.23364258 C-20.39762565 29.35571701 -19.74476321 27.49339045 -19.125 25.5 C-17.61801483 20.76257149 -15.80040146 16.16874506 -13.9375 11.5625 C-13.64061279 10.81234619 -13.34372559 10.06219238 -13.0378418 9.28930664 C-12.7469165 8.57766357 -12.45599121 7.86602051 -12.15625 7.1328125 C-11.89779297 6.49359863 -11.63933594 5.85438477 -11.37304688 5.19580078 C-8.66179563 0.1001767 -5.41658224 -0.05712599 0 0 Z " fill="#F9F9F9" transform="translate(289.4375,282.5625)"/>
<path d="M0 0 C5.28 0 10.56 0 16 0 C16.556875 1.44375 17.11375 2.8875 17.6875 4.375 C19.16297238 8.08730951 20.78882363 11.64046493 22.625 15.1875 C24.61400761 19.06907849 25.81941978 22.79418296 27 27 C27.81077614 28.84342008 28.64633866 30.67604335 29.5 32.5 C31.42671749 36.6278802 32.76784104 40.61043372 34 45 C35.17072592 47.93769515 36.40583855 50.84424979 37.64453125 53.75390625 C39.00010225 57.00024488 40.25923481 60.27075387 41.5 63.5625 C43.041944 67.6276251 44.69862501 71.5727527 46.5625 75.5 C48.90699006 80.52600057 50.47798669 85.64091497 52.04296875 90.953125 C53.08771953 94.27927033 54.39486467 97.34667866 55.8671875 100.5 C57.34133346 103.75328765 58.67501219 107.05902521 60 110.375 C60.25950439 111.023479 60.51900879 111.67195801 60.78637695 112.34008789 C62.29418181 116.13796372 63.71151761 119.95645716 65.0625 123.8125 C66.33992284 127.42028417 67.84125972 130.73953375 69.625 134.125 C71.27562414 137.29119721 72.35516941 140.05243158 73 143.5625 C73.62080401 146.91835565 74.61702239 149.32536452 76.375 152.25 C79.17494635 156.92755742 80.57796971 161.74583592 82.0078125 166.984375 C83.00501958 170.01525635 84.3501419 172.28382139 86 175 C86.86112065 177.21083955 87.67063667 179.44222476 88.4375 181.6875 C90.1432538 186.58646553 91.93118903 191.41467236 93.89453125 196.21484375 C94.79755016 198.48994086 95.66373163 200.77058496 96.51171875 203.06640625 C96.77799072 203.78650879 97.0442627 204.50661133 97.31860352 205.24853516 C97.84712199 206.6831996 98.37246778 208.11903772 98.89428711 209.55615234 C100.03660931 212.65345041 101.15898096 215.23847145 103 218 C103.46471195 219.65968553 103.92743272 221.31998419 104.375 222.984375 C105.80436331 227.59407166 108.02815229 231.93306302 110.078125 236.29296875 C112.0035094 240.46702971 113.36946808 244.34875277 114.3828125 248.85546875 C115.40641666 252.41216928 117.06702825 255.66623352 118.640625 259.0078125 C121.01626582 264.23695293 122.9672821 269.63068266 125 275 C126.92109376 279.93692845 128.90117811 284.81629289 131.125 289.625 C132.38265126 292.40353185 133.32994144 295.02588044 134 298 C134.83172313 301.64678603 136.16620223 304.8112634 137.734375 308.19921875 C143.44649269 320.83992363 148.33217462 333.86225196 153.19140625 346.84765625 C158.03787398 360.01319733 158.03787398 360.01319733 163.90356445 372.74389648 C166.3726459 377.53343278 168.32869032 382.33925321 170.0625 387.4375 C170.45199829 388.55934692 170.45199829 388.55934692 170.84936523 389.70385742 C172.12648382 393.39451708 173.36431797 397.09541258 174.5625 400.8125 C177.13868374 408.63091808 180.62600173 416.13249603 183.875 423.6875 C184.9188673 426.1240918 185.96104235 428.56131856 187 431 C187.45391113 432.06420166 187.45391113 432.06420166 187.91699219 433.14990234 C188.86807978 435.38881924 189.81005708 437.6313843 190.75 439.875 C191.04374512 440.56424561 191.33749023 441.25349121 191.64013672 441.96362305 C193.04479401 445.33878135 194.21398913 448.62338257 195.05859375 452.18359375 C195.87244308 455.48289165 196.83161933 458.15338293 198.3125 461.1875 C200.22338121 465.23901647 201.92321042 469.30683402 203.5 473.5 C205.41036417 478.56036904 207.53336741 483.46418525 209.8046875 488.37109375 C212.72473206 494.79328326 215.11151725 501.20146209 217 508 C219.5321126 515.07693008 222.48744584 521.96389587 225.4375 528.875 C234.7703471 550.76499765 234.7703471 550.76499765 236.9375 558.375 C238.48700052 563.5181498 240.31157237 568.4064428 242.4375 573.3359375 C243.74093835 576.39250043 245.00427479 579.45878004 246.25 582.5390625 C246.65065674 583.52849854 247.05131348 584.51793457 247.46411133 585.53735352 C248.27068135 587.53180756 249.07525324 589.52707099 249.87768555 591.52319336 C250.2519165 592.44495361 250.62614746 593.36671387 251.01171875 594.31640625 C251.34647217 595.14599854 251.68122559 595.97559082 252.02612305 596.83032227 C253.02621101 599.2184307 253.02621101 599.2184307 255 602 C255.45703125 603.875 255.45703125 603.875 255.8125 606 C256.78075205 610.69753531 258.58503419 614.66430178 260.64453125 618.9765625 C262.12853747 622.28670894 263.32070033 625.63248646 264.5 629.0625 C265.92904674 633.1844067 267.4343978 637.0342709 269.5 640.875 C272.0839917 645.76843428 273.56053861 650.81906208 275.12060547 656.10131836 C276.5879454 660.96152167 278.48871764 665.31268716 280.88671875 669.796875 C282.29627761 672.58631779 283.19664809 675.41867892 284.12890625 678.39453125 C286.77710824 686.31538652 290.05135935 694.08064752 293.625 701.625 C295.94610607 706.60198705 297.52498817 711.67528973 299.0078125 716.95703125 C300.05506728 720.16888745 301.47985251 722.98727247 303 726 C303.68819829 727.99269354 304.35555999 729.99272784 305 732 C305.73017778 733.84131788 306.4808741 735.67460786 307.25 737.5 C307.68570312 738.53769531 308.12140625 739.57539062 308.5703125 740.64453125 C309.55614146 742.95826643 310.55152235 745.26794711 311.5546875 747.57421875 C313.98893889 753.17541908 316.32375616 758.70692783 318.16015625 764.53125 C320.17267949 770.44713226 322.65079142 776.2111014 325 782 C325.97932089 784.44292134 326.95504701 786.88723977 327.9296875 789.33203125 C328.78223562 791.45717858 329.64353027 793.5788165 330.5078125 795.69921875 C331.046875 797.02864583 331.5859375 798.35807292 332.125 799.6875 C332.62257813 800.90824219 333.12015625 802.12898437 333.6328125 803.38671875 C334.95862872 806.89066161 335.97745754 810.39833222 337 814 C337.73639989 815.90947199 338.50695775 817.80615215 339.3125 819.6875 C339.75078125 820.72003906 340.1890625 821.75257813 340.640625 822.81640625 C341.08921875 823.86699219 341.5378125 824.91757812 342 826 C344.7143309 832.46697512 347.39319208 838.94441682 349.9765625 845.46484375 C351.07286426 848.18049201 352.22448077 850.86940562 353.375 853.5625 C355.45036638 858.50263593 357.254194 863.49999684 359 868.5625 C360.96124273 874.24076467 363.1385611 879.68100795 365.70703125 885.1171875 C367.34004263 888.75816152 368.77739695 892.45545592 370.1875 896.1875 C370.43757813 896.84113525 370.68765625 897.49477051 370.9453125 898.16821289 C372.64293271 902.71909679 373.89008474 907.27102455 375 912 C377.95888516 909.5002522 378.95164388 906.98662442 380.25 903.375 C382.25502819 897.94319635 384.38990246 892.59106576 386.625 887.25 C388.71778345 882.22166805 390.69231494 877.21693506 392.33203125 872.01953125 C393.37568809 868.8641477 394.64790999 865.80693178 395.90234375 862.73046875 C397.1245394 859.6902027 398.28021619 856.62803236 399.4375 853.5625 C400.96952417 849.56247338 402.57600784 845.63700273 404.375 841.75 C409.08291868 831.55944184 413.5764317 821.38168591 416.265625 810.4609375 C417.30642669 806.97314459 418.97983675 803.9328678 420.6796875 800.7265625 C422.75738408 796.43593465 424.19769932 791.93917199 425.75 787.4375 C426.86130866 784.38140118 428.10317352 781.49583561 429.5 778.5625 C431.82060296 773.637584 433.52924688 768.58199126 435.1953125 763.41088867 C436.55363686 759.23179876 438.11497791 755.26944487 439.97265625 751.29296875 C441.24034959 748.46355434 442.33650132 745.58576756 443.4375 742.6875 C449.60126048 726.50290192 449.60126048 726.50290192 453.1875 719.875 C454.70375954 716.96281897 455.39482403 714.36095671 455.9375 711.125 C456.74568399 706.4602187 458.42007248 702.91446892 460.64453125 698.765625 C462.20600672 695.57967505 463.34884284 692.35542339 464.5 689 C465.917744 684.88810072 467.39151722 681.0245348 469.4375 677.1875 C473.91239024 668.66121072 476.67706841 659.22415283 479.5625 650.0625 C480.9076999 645.94730269 482.82257157 642.19120479 484.80078125 638.34765625 C486.89448706 634.24890319 488.67409898 630.2104895 489.875 625.75 C491.13984619 621.53384604 492.91351064 617.74652109 494.7734375 613.765625 C496.16550693 610.62681876 497.22019541 607.46220607 498.25 604.19140625 C499.30500394 601.10881662 500.65286699 598.18605474 502.03515625 595.23828125 C503.19773156 592.54129481 504.07429462 589.78728873 505 587 C505.96508245 584.42336347 506.97903878 581.86743018 508 579.3125 C508.39058594 578.31766602 508.39058594 578.31766602 508.7890625 577.30273438 C509.98936191 574.29289266 511.19488746 571.70766881 513 569 C513.62534327 567.07564821 514.20237963 565.13539526 514.75 563.1875 C516.56832565 557.09036343 518.90684944 551.38994379 521.48046875 545.578125 C523.53185518 540.74761095 525.23425691 535.83050383 526.921875 530.86328125 C528 528 528 528 530 525 C530.68656612 523.00674352 531.35105786 521.00582116 532 519 C533.22522161 515.98406988 534.50271292 512.99364781 535.78125 510 C536.98686521 507.03233178 537.98975955 504.03870745 539 501 C539.75258171 499.13835051 540.52398534 497.28421673 541.3125 495.4375 C543.11913884 491.15136855 544.84566861 486.84718628 546.5 482.5 C548.07550293 478.36246426 549.71084021 474.26418238 551.4375 470.1875 C553.66799745 464.89006855 555.69592491 459.53426756 557.69458008 454.14672852 C560.33664412 447.04623427 563.16267364 440.02421195 566 433 C566.64643657 431.37523988 567.29233543 429.75026563 567.9375 428.125 C569.16436434 425.04752938 570.42036604 421.98356269 571.6953125 418.92578125 C572.00218994 418.18763184 572.30906738 417.44948242 572.62524414 416.68896484 C573.23104717 415.23371202 573.83943184 413.77953003 574.45092773 412.32666016 C575.90656756 408.82737592 577.2433671 405.33565646 578.40234375 401.7265625 C580.27034026 395.99404393 582.64694513 390.48448082 585 384.9375 C585.87636793 382.86385883 586.75139686 380.78965121 587.625 378.71484375 C588.0375 377.73757324 588.45 376.76030273 588.875 375.75341797 C589.863418 373.33428208 590.7599428 370.90648136 591.625 368.44140625 C592.88217802 365.29488966 593.47305107 364.0515633 596 362 C599.1015625 361.671875 599.1015625 361.671875 602.625 361.75 C603.79289063 361.76546875 604.96078125 361.7809375 606.1640625 361.796875 C609 362 609 362 610 363 C610.1875 365.9375 610.1875 365.9375 610 369 C609.34 369.66 608.68 370.32 608 371 C607.13165739 372.99747459 606.32805019 375.02341773 605.5625 377.0625 C604.89927734 378.82207031 604.89927734 378.82207031 604.22265625 380.6171875 C603.25461795 383.29552988 602.35188005 385.97121961 601.5 388.6875 C600.43705395 392.00389166 599.04715839 394.97458391 597.4375 398.0625 C595.88887958 401.04485803 594.69449917 403.71270391 594 407 C593.3270298 410.1405276 592.24707248 412.65745732 590.75 415.5 C587.46277516 421.78268417 585.1336997 428.38311341 582.71582031 435.03393555 C580.45790868 441.23549162 578.05122812 447.35082065 575.5 453.4375 C573.37482776 458.54077481 571.39879988 463.6140078 569.7421875 468.890625 C568.15776867 473.39371009 566.01616025 477.67777411 564 482 C562.3734892 485.62837024 560.90333363 489.21896824 559.6875 493 C558.15811858 497.69908385 556.33365001 502.26032788 554.47998047 506.83984375 C552.07501094 512.78517615 549.75156527 518.76046287 547.44824219 524.74584961 C546.15997608 528.07914399 544.83756433 531.37540688 543.41796875 534.65625 C542.10969093 537.74133488 541.03371716 540.81480646 540 544 C535.6216213 556.00331033 535.6216213 556.00331033 533 560.9375 C530.59898088 565.51864448 529.05527153 570.3848056 527.36328125 575.26171875 C525.56524526 580.19214982 523.47479275 584.9573893 521.33203125 589.74609375 C519.9509799 593.11974705 518.98605621 596.49313879 518 600 C517.26360011 601.90947199 516.49304225 603.80615215 515.6875 605.6875 C515.24921875 606.72003906 514.8109375 607.75257813 514.359375 608.81640625 C513.91078125 609.86699219 513.4621875 610.91757812 513 612 C512.14348149 614.04068114 511.28926895 616.08233186 510.4375 618.125 C509.82068359 619.60419922 509.82068359 619.60419922 509.19140625 621.11328125 C507.73042009 624.65317886 506.311882 628.20889044 504.90234375 631.76953125 C504.12252741 633.69712921 503.28515377 635.60125555 502.4375 637.5 C501.28461687 640.3070198 500.39399659 642.96923236 499.5625 645.875 C498.40509928 649.84577478 496.97469528 653.49838935 495.23828125 657.24609375 C493.22856462 661.71565281 491.40355591 666.26113877 489.54980469 670.79711914 C488.18638864 674.12918807 486.81048478 677.4521587 485.375 680.75390625 C484.31023728 683.26759323 483.37527518 685.71262908 482.5625 688.3125 C480.40208848 694.94001243 477.76978087 701.34911364 474.875 707.6875 C473.70192812 710.28275168 472.83008064 712.61170968 472.0625 715.375 C470.89124389 719.37105027 469.25377765 722.92677839 467.5 726.6953125 C465.69048758 730.68189455 463.98920544 734.70610367 462.3125 738.75 C462.01512939 739.45882324 461.71775879 740.16764648 461.41137695 740.89794922 C460.09501688 744.08932884 458.94582584 747.18971496 457.99609375 750.515625 C456.85957431 754.49121458 455.35999962 758.19783904 453.75 762 C453.12298617 763.49970262 452.49669835 764.99970897 451.87109375 766.5 C451.55769043 767.25023437 451.24428711 768.00046875 450.92138672 768.7734375 C449.5165112 772.16836722 448.16436019 775.58369483 446.8125 779 C445.24743774 782.93963949 443.65089654 786.83857247 441.875 790.6875 C439.89308228 795.03625333 438.47594553 799.52719218 437.0078125 804.0703125 C435.84731552 807.44385023 434.4579726 810.64642137 432.9296875 813.8671875 C431.92691139 816.07727872 431.92691139 816.07727872 431.08862305 818.77075195 C429.30580024 824.05924651 427.08942037 829.16554477 424.9375 834.3125 C424.47794922 835.42173828 424.01839844 836.53097656 423.54492188 837.67382812 C423.10599609 838.72634766 422.66707031 839.77886719 422.21484375 840.86328125 C421.61337524 842.30634644 421.61337524 842.30634644 420.99975586 843.77856445 C420 846 420 846 419 847 C418.72595105 848.30769011 418.48127054 849.6215706 418.25 850.9375 C417.26932441 855.59017891 415.430668 859.35478366 413.22265625 863.5390625 C411.7548298 866.49347356 410.78374671 869.46827868 409.80078125 872.609375 C408.53660891 876.38339195 406.9469299 880.01287085 405.39453125 883.67578125 C403.33875905 888.57623544 401.38866354 893.51723492 399.4296875 898.45703125 C398.44848853 900.8885817 397.44673838 903.29567167 396.40234375 905.69921875 C395.36646601 908.13742681 394.46041146 910.47620749 393.6875 913 C392.25772473 917.32675448 390.73249667 921.61148389 389.125 925.875 C388.89256592 926.52984375 388.66013184 927.1846875 388.4206543 927.859375 C387.23943866 930.92552611 386.20273613 932.83329837 383.6484375 934.93359375 C378.98224527 936.81245876 374.76212383 936.48906289 370 935 C367.37329804 932.76543601 366.28067394 930.16091434 365 927 C364.37544922 925.46279297 364.37544922 925.46279297 363.73828125 923.89453125 C362.86324121 921.65306233 362.01069222 919.40269625 361.1796875 917.14453125 C360.22995376 914.61295621 359.21087216 912.19384984 358.0625 909.75 C356.10449434 905.47081021 354.59426671 901.06924688 353.0625 896.625 C351.06476053 890.83280804 348.84943159 885.2857021 346.21875 879.74609375 C344.26744724 875.34940836 342.76020858 870.8020355 341.1796875 866.26171875 C340.2387788 863.66019967 339.2333535 861.18886883 338.0625 858.6875 C336.0719711 854.39214816 334.54625398 849.96898094 333 845.5 C331.23545378 840.40786815 329.41038525 835.44360473 327.125 830.55859375 C325.12796745 826.01673152 323.41805444 821.3584426 321.64355469 816.72607422 C320.00109817 812.47174136 318.27299473 808.30816947 316.3125 804.1875 C314.51762301 800.37630017 313.22994192 796.61026994 312.0625 792.5625 C310.41595034 786.91718687 308.14501583 781.92815124 305.3671875 776.75390625 C303.94398386 773.88716748 302.95652231 771.05097633 302 768 C300.51551691 763.78308924 298.87547235 759.68375123 297 755.625 C295.56403374 752.45934712 294.45210908 749.3427308 293.5 746 C292.35827104 742.01310691 290.90732128 738.36797588 289.16796875 734.609375 C287.68538716 731.29711915 286.33974923 727.93425103 285 724.5625 C284.74130127 723.91240967 284.48260254 723.26231934 284.21606445 722.5925293 C283.09592325 719.77283905 281.98074621 716.95120161 280.8671875 714.12890625 C279.3119957 710.20418993 277.70718795 706.33321088 275.9375 702.5 C274.14159748 698.52937177 272.90688494 694.51157208 271.70703125 690.328125 C270.72488801 687.09410637 269.38208926 684.0831222 268 681 C267.20373057 679.10609527 266.41256553 677.21004069 265.625 675.3125 C264.32159686 672.17728704 263.01771483 669.04233363 261.70703125 665.91015625 C254.5573367 648.81688652 254.5573367 648.81688652 252.5625 642.6875 C249.86035414 634.42125809 246.69792805 626.37116819 243 618.5 C239.26874625 610.53429543 236.15752571 602.40526421 233.30859375 594.0859375 C229.3608108 582.29111937 229.3608108 582.29111937 224.04296875 571.0703125 C222.72812375 568.46032056 221.91842521 565.77516931 221 563 C219.57898423 559.4316814 218.06833787 555.90011527 216.56640625 552.36523438 C214.72287238 547.96211593 213.30264178 543.59912302 212 539 C211.09944586 536.77634432 210.16067218 534.56784707 209.1875 532.375 C207.14791848 527.72779699 205.22702735 523.06380839 203.4375 518.3125 C201.54644845 513.31818436 199.44060758 508.47643648 197.1953125 503.6328125 C194.15084549 496.9270257 191.59538844 490.08274394 189.390625 483.05859375 C186.93217712 475.42374727 183.78371231 468.10599704 180.58984375 460.75390625 C174.7722972 447.33476554 169.41381778 433.80659877 165.04296875 419.84375 C164.19464937 416.91439085 164.19464937 416.91439085 162 415 C161.30475649 413.00975356 160.64445103 411.00726862 160 409 C158.89775162 406.21096693 157.72603735 403.45143847 156.5625 400.6875 C154.42176718 395.55422159 152.39941056 390.45437026 150.734375 385.14453125 C149.82662938 382.49372091 148.72993385 379.94976869 147.625 377.375 C145.66610631 372.77687827 144.01921899 368.13279003 142.5 363.375 C141.1347216 359.12226682 139.66632979 355.07724255 137.5625 351.125 C134.98005015 346.24882141 133.22619617 341.1617413 131.44604492 335.95727539 C128.58374781 327.65343848 125.28136229 319.5341574 121.97216797 311.40039062 C120.94999759 308.87653849 119.94328968 306.34682647 118.9375 303.81640625 C117.40163504 299.97077063 115.79034192 296.16671071 114.125 292.375 C111.59824724 286.52390839 109.3199489 280.61283568 107.11865234 274.6328125 C105.52784862 270.33437006 103.81900725 266.13491883 101.859375 261.9921875 C100.73271752 259.38039062 99.8917202 256.70110155 99 254 C98.04409084 251.34539097 97.05454393 248.70378573 96.0625 246.0625 C95.68448242 245.04639648 95.68448242 245.04639648 95.29882812 244.00976562 C94.07859628 240.75477376 92.80746603 237.55521309 91.42578125 234.36328125 C90.13062317 231.30812752 89.09565601 228.29466432 88.125 225.125 C86.60775398 220.46323265 84.71547629 216.49445988 82.23046875 212.2890625 C79.45525806 207.1262896 77.78137886 201.44180894 76 195.875 C75.17375466 193.49954466 74.24622883 191.33602525 73.1875 189.0625 C71.32341826 184.96706391 69.88352936 180.7761227 68.5 176.5 C66.6570111 170.82165864 64.56853511 165.38868182 62 160 C58.87841266 153.4407152 56.43156125 146.72649153 54.10595703 139.8515625 C52.98794251 136.58840843 51.9241277 133.88619155 50 131 C49.29717729 129.01241738 48.63530485 127.01018213 48 125 C47.21636199 122.72638359 46.4243252 120.45564889 45.625 118.1875 C45.22539062 117.04667969 44.82578125 115.90585938 44.4140625 114.73046875 C43.07879982 111.20788349 41.5964072 107.80343619 40.04833984 104.37182617 C38.25457799 100.31351309 36.63336507 96.18738483 35 92.0625 C34.505 90.81823242 34.505 90.81823242 34 89.54882812 C33.33600845 87.87977124 32.67275361 86.21042109 32.01025391 84.54077148 C30.63762151 81.08862423 29.25356002 77.64108631 27.86865234 74.19384766 C26.84430716 71.60678587 25.88013882 68.99844698 24.91015625 66.390625 C21.81147204 58.2515918 18.62973452 50.12148383 14.95703125 42.22265625 C12.85945885 37.35115137 11.11590324 32.33145817 9.31640625 27.34375 C9.02830078 26.54839844 8.74019531 25.75304687 8.44335938 24.93359375 C7.85657095 23.31244435 7.27322966 21.69004305 6.69335938 20.06640625 C5.01886676 15.46434859 3.16527328 11.1694728 0.74975586 6.90429688 C0 5 0 5 0 0 Z " fill="#F9F9F9" transform="translate(193,0)"/>
<path d="M0 0 C1.90845703 0.04060547 1.90845703 0.04060547 3.85546875 0.08203125 C5.31919922 0.13423828 5.31919922 0.13423828 6.8125 0.1875 C6.8125 0.8475 6.8125 1.5075 6.8125 2.1875 C7.4725 2.1875 8.1325 2.1875 8.8125 2.1875 C11.7616286 8.22380152 14.26622502 14.28800309 16.3125 20.6875 C18.10428025 26.28964837 20.24102401 31.59562647 22.76171875 36.91015625 C24.00589315 39.60663832 24.87379905 42.37139716 25.8125 45.1875 C26.63245395 47.02685616 27.46733725 48.85958986 28.3125 50.6875 C30.06526054 54.47918607 31.51714695 58.21508397 32.8125 62.1875 C33.46960102 63.65016838 34.13725218 65.10812008 34.8125 66.5625 C36.11491591 69.42589969 37.12777146 72.11844885 37.8125 75.1875 C38.64648768 78.84421521 39.98729592 82.01634836 41.55859375 85.4140625 C46.07974415 95.41411478 50.03396986 105.69335969 54.125 115.875 C54.46241211 116.71200439 54.79982422 117.54900879 55.14746094 118.41137695 C56.83833584 122.63557225 58.40282921 126.85946118 59.8125 131.1875 C63.57075097 141.89565173 63.57075097 141.89565173 68.3125 152.1875 C72.53076054 160.26014557 75.37309384 169.01836629 78.3515625 177.609375 C80.84072286 184.78836144 83.35954992 191.82564588 86.63671875 198.6953125 C89.47231234 204.70564045 91.90546897 210.87149006 94.3125 217.0625 C94.60769531 217.81402344 94.90289062 218.56554687 95.20703125 219.33984375 C96.97073104 223.86952206 98.57385644 228.42615912 100.08886719 233.04443359 C103.01701606 241.71625909 106.73185124 250.12546703 110.5859375 258.41796875 C112.46428193 262.65919869 114.07842728 266.99485553 115.69921875 271.33984375 C116.72817497 274.11578862 116.72817497 274.11578862 117.9375 276.37109375 C118.8125 278.1875 118.8125 278.1875 119.125 281.3125 C119.88434513 285.5924453 121.4070914 288.51263377 123.421875 292.31640625 C124.98427739 295.54215276 126.14951173 298.79790446 127.3125 302.1875 C128.730244 306.29939928 130.20401722 310.1629652 132.25 314 C135.30300796 319.80839564 137.28189578 325.95968909 139.41015625 332.1484375 C140.7409506 336.0154752 142.19773522 339.81401084 143.75 343.59765625 C144.8631077 346.31085628 145.94406298 349.0361269 147.02392578 351.76269531 C149.79410956 358.74390149 152.68099358 365.65021245 155.875 372.44921875 C156.225625 373.20847656 156.57625 373.96773437 156.9375 374.75 C157.24945313 375.41128906 157.56140625 376.07257813 157.8828125 376.75390625 C158.8125 379.1875 158.8125 379.1875 159.625 382.6875 C161.03530817 388.55331709 163.41530089 394.05049402 165.6875 399.625 C166.12191406 400.70587891 166.55632812 401.78675781 167.00390625 402.90039062 C169.22121467 408.39039299 171.50678426 413.83798486 173.93701172 419.23706055 C175.1466987 421.93203803 176.29745689 424.64992922 177.4375 427.375 C177.84226562 428.33792969 178.24703125 429.30085938 178.6640625 430.29296875 C179.82854868 433.22794922 180.83385189 436.18603948 181.8125 439.1875 C183.86713882 444.86221673 186.15226984 450.41400375 188.4921875 455.9765625 C189.82367237 459.21467068 191.07552478 462.47473858 192.3125 465.75 C193.89316694 469.91857274 195.60052937 473.96710636 197.5 478 C199.23641263 481.72011622 200.36691886 485.15919619 201.21875 489.15625 C202.22283512 492.59127804 203.99544886 495.64370922 205.6484375 498.8046875 C207.13077271 501.83899783 207.95162597 504.9284769 208.8125 508.1875 C209.7812759 510.54024147 210.78245804 512.86216922 211.8125 515.1875 C215.01623452 522.614843 217.8777096 530.10351982 220.55859375 537.734375 C222.11088719 542.00922671 223.84539834 546.18903465 225.62109375 550.375 C228.9230506 558.1697834 232.17514341 566.05711601 234.75 574.125 C235.63615224 576.67920353 236.62910794 579.04592572 237.75 581.5 C239.46087127 585.27658991 240.83412381 589.07241611 242.10546875 593.015625 C244.20894471 599.47713125 246.85619696 605.70865764 249.48828125 611.96875 C250.83895612 615.25180631 252.114941 618.55619845 253.375 621.875 C254.79757125 625.61649618 256.27261803 629.29754892 257.9375 632.9375 C259.19259058 635.69670708 260.26452545 638.42552147 261.1875 641.3125 C263.83700514 649.56505698 267.19825643 657.61906465 270.74609375 665.5234375 C272.9307027 670.40588495 274.94983772 675.34712313 276.9375 680.3125 C277.28425781 681.16714844 277.63101562 682.02179687 277.98828125 682.90234375 C279.87837707 687.61672067 281.45248677 692.28788903 282.8125 697.1875 C283.5061617 699.01388269 284.23545212 700.82713826 285 702.625 C285.43441406 703.64851563 285.86882813 704.67203125 286.31640625 705.7265625 C288.58182528 710.96719242 290.86483346 716.19990085 293.1640625 721.42578125 C293.71387732 722.67954036 294.26336011 723.93344513 294.8125 725.1875 C295.09061523 725.82042969 295.36873047 726.45335937 295.65527344 727.10546875 C297.38650609 731.08415615 298.6586188 735.00468065 299.8125 739.1875 C302.71125328 748.5298675 306.43561051 757.45026761 310.5234375 766.328125 C312.31195049 770.29537201 313.96534933 774.31413751 315.6171875 778.33984375 C316.68551924 780.88498702 317.82703928 783.37702811 319 785.875 C320.6477903 789.51852039 321.48426751 793.02906218 322.2578125 796.9375 C323.01930833 800.02638451 324.26200763 802.78645733 325.6171875 805.65625 C329.38523962 813.63565448 332.68035069 821.7775992 335.90039062 829.99023438 C337.32259797 833.58564055 338.75643781 837.07641381 340.5 840.53125 C341.69799552 842.95576475 342.30708831 844.85745944 342.75 847.5 C343.57446743 851.55475783 344.92531325 855.00992637 346.6796875 858.74609375 C347.95186544 861.48785656 349.10264672 864.26627739 350.25 867.0625 C351.90285396 871.05986374 353.62588141 875.00960624 355.4375 878.9375 C358.15810453 884.88032052 360.42494151 890.78703151 362.25 897.0625 C365.0831499 906.67759421 368.97915662 916.48566838 373.9609375 925.1953125 C374.8125 927.1875 374.8125 927.1875 374.8125 932.1875 C369.5325 932.1875 364.2525 932.1875 358.8125 932.1875 C357.9771875 930.0528125 357.9771875 930.0528125 357.125 927.875 C355.64136847 924.15547306 354.06248051 920.50628716 352.375 916.875 C350.02964348 911.78980803 348.03543806 906.61155772 346.06640625 901.37109375 C344.90664827 898.42653689 343.61928494 895.60163011 342.25 892.75 C339.78117517 887.47182277 338.25648712 882.08297213 336.8046875 876.44921875 C335.79118629 873.11743327 334.40512664 870.27736157 332.8125 867.1875 C332.15889398 865.44798163 331.53303235 863.69774607 330.9375 861.9375 C329.2870801 857.28860731 327.29379647 852.97376358 325.04296875 848.58984375 C321.96644974 842.58330664 319.67711105 837.03291588 318.359375 830.41015625 C317.61241875 827.37431263 316.3424679 824.71824053 315.01171875 821.8984375 C313.46672981 818.40585664 312.18168547 814.83715085 310.875 811.25 C308.86668699 805.76972053 306.67574428 800.54162444 303.890625 795.3984375 C302.58926862 792.7297139 301.72895788 790.01089524 300.8125 787.1875 C299.98950201 785.03768153 299.15588953 782.89190085 298.3125 780.75 C295.6342395 773.85073831 295.6342395 773.85073831 294.6875 770.3125 C293.4565202 765.91614358 291.60136533 761.88533473 289.68359375 757.7578125 C285.76234653 749.27611788 282.20264494 740.66286912 279.375 731.75 C277.69032476 726.52169753 275.42900635 721.5394266 273.21484375 716.51953125 C271.91794752 713.43804801 270.85428215 710.3620645 269.8125 707.1875 C267.11488145 700.13888378 264.31005142 693.15553472 261.125 686.3125 C259.38418808 682.55630015 257.99853571 678.84556175 256.7578125 674.90234375 C255.17255032 670.34962798 253.2756714 665.92291896 251.41259766 661.47802734 C249.43515844 656.75079731 247.58732845 651.99474964 245.8125 647.1875 C244.02913274 642.40483326 242.21528017 637.63609182 240.375 632.875 C238.78072589 628.74611646 237.23525796 624.60674775 235.75 620.4375 C234.60836427 617.27081993 233.40213169 614.18473653 232 611.125 C229.54934824 605.76843705 227.49385676 600.26175474 225.38183594 594.765625 C223.92956503 591.00313581 222.45946518 587.27996529 220.75 583.625 C218.81403885 579.43869084 217.37015446 575.10746804 215.875 570.75 C213.89591761 564.98846284 211.68877341 559.57645352 208.8359375 554.1796875 C207.5062666 551.59139682 206.64234708 548.97341521 205.8125 546.1875 C204.33214163 541.26888994 202.65257813 536.73826564 200.25 532.1875 C198.59342683 529.00216049 197.46485017 526.21640378 196.8125 522.6875 C195.99226085 518.30267015 194.2443819 514.8474469 192.171875 510.921875 C190.1466488 506.84814413 188.59948867 502.61983499 187.00390625 498.36328125 C185.93603449 495.51679028 184.82624031 492.693707 183.6875 489.875 C182.26860749 486.350471 180.91280583 482.80897824 179.59375 479.24609375 C178.70287476 476.89863748 177.7585638 474.57574018 176.8125 472.25 C175.5186802 469.04975632 174.35455196 465.85289234 173.3125 462.5625 C172.1785523 459.06363464 170.68310014 455.93123348 168.9765625 452.66796875 C167.09464942 448.65785195 165.62779611 444.48941121 164.10327148 440.33398438 C162.18796108 435.12948153 160.10500375 430.0192836 157.890625 424.93359375 C156.8125 422.1875 156.8125 422.1875 155.8828125 418.875 C154.6694123 414.6945263 153.1130689 410.76197639 151.4375 406.75 C151.14617187 406.03779297 150.85484375 405.32558594 150.5546875 404.59179688 C148.76700173 400.27547662 146.8141562 396.0955004 144.65161133 391.95385742 C143.32282548 389.15671876 142.65555801 386.16299885 141.8125 383.1875 C141.03798676 381.30534954 140.244264 379.43105371 139.4375 377.5625 C137.63342593 373.33896799 136.14987525 369.16138841 134.875 364.75 C133.18465208 359.03144393 130.89892249 353.82303608 128.32421875 348.453125 C126.31345983 344.10947008 124.64687637 339.66397603 122.96875 335.18359375 C121.95995791 332.56959532 120.8661676 330.04038585 119.6875 327.5 C118.37493171 324.61546257 117.35600164 321.80047857 116.5 318.75 C113.43570183 308.0500736 109.20325259 297.53164599 104.00390625 287.69921875 C101.93596861 283.33959939 100.46471467 278.75807839 98.92578125 274.19140625 C97.89984069 271.06828228 97.89984069 271.06828228 95.8125 268.1875 C95.26956464 266.78672677 94.7725453 265.36764082 94.3125 263.9375 C94.0753125 263.21046875 93.838125 262.4834375 93.59375 261.734375 C93.0242281 259.87773359 92.5063242 258.00502796 92.01953125 256.125 C90.48491541 250.72257039 88.18121468 245.60302755 86 240.4375 C85.57396484 239.4165625 85.14792969 238.395625 84.70898438 237.34375 C82.59848334 232.31175358 80.42537336 227.32530779 78.12109375 222.37890625 C76.22292369 218.2383249 74.81643096 214.28393309 73.6875 209.875 C72.5030798 205.27882074 70.98836457 201.40046227 68.8125 197.1875 C67.99468951 195.15616426 67.20356537 193.11390994 66.4375 191.0625 C62.27000484 179.96216218 62.27000484 179.96216218 57.28125 169.21875 C55.8229567 166.20908085 54.85512366 163.33668281 53.9375 160.125 C51.71498552 152.67102837 49.38082917 144.93104673 45.6640625 138.06640625 C44.8125 136.1875 44.8125 136.1875 44.8125 132.1875 C44.1525 132.1875 43.4925 132.1875 42.8125 132.1875 C42.24982422 130.66382813 42.24982422 130.66382813 41.67578125 129.109375 C39.31922773 122.75908342 36.95733847 116.42483892 34.3125 110.1875 C32.38961585 105.64138413 30.60059723 101.06096613 28.875 96.4375 C28.62435791 95.76638184 28.37371582 95.09526367 28.11547852 94.40380859 C26.821518 90.92760787 25.54168288 87.44659791 24.2734375 83.9609375 C21.11368978 75.31795517 21.11368978 75.31795517 17.1875 67 C14.69218064 62.27328929 13.2347639 57.40377559 11.8046875 52.265625 C10.76280471 49.0333272 9.3873345 46.19173573 7.8125 43.1875 C6.18416424 39.60516132 4.73364927 36.10188513 3.6875 32.3125 C3.13139678 29.34297637 3.13139678 29.34297637 1.8125 28.1875 C1.77169217 26.18791636 1.76995644 24.18704746 1.8125 22.1875 C0.8225 22.5175 -0.1675 22.8475 -1.1875 23.1875 C-2.26067025 25.94106847 -3.16008974 28.61294243 -4 31.4375 C-6.13497603 38.24420336 -8.63245321 44.59682242 -11.74609375 51.02734375 C-13.82599268 55.58733898 -15.39811539 60.29548654 -17.02734375 65.03125 C-17.99508672 67.66403223 -19.05050204 70.03672704 -20.375 72.5 C-21.81490346 75.19124814 -22.56156596 77.56273543 -23.125 80.5625 C-23.77266695 83.92757681 -24.78199264 86.57183048 -26.40234375 89.5859375 C-29.69876913 96.0126916 -32.23061211 102.69905632 -34.8125 109.4375 C-35.75938912 111.90247856 -36.71082051 114.3655832 -37.6640625 116.828125 C-38.284021 118.44509277 -38.284021 118.44509277 -38.91650391 120.09472656 C-40.1875 123.1875 -40.1875 123.1875 -41.78662109 126.34667969 C-43.20315141 129.21923926 -43.8869297 131.97029756 -44.60546875 135.078125 C-45.42456542 138.04666326 -46.69495478 140.72704005 -47.98828125 143.515625 C-49.46497836 146.8057254 -50.79833547 150.14751704 -52.125 153.5 C-53.92442056 158.04640832 -55.76420328 162.566562 -57.6875 167.0625 C-59.70205744 171.85998774 -61.47401272 176.71448904 -63.1875 181.625 C-69.90400573 200.85611174 -69.90400573 200.85611174 -74.1875 209.0625 C-77.11560699 214.73852279 -79.10138177 220.57555516 -81.03125 226.63671875 C-82.29028091 230.50313462 -83.74221138 234.24358375 -85.29296875 238 C-86.12181458 240.0268719 -86.88176628 242.06553673 -87.625 244.125 C-88.80830847 247.32765009 -90.18653196 250.40378526 -91.625 253.5 C-93.75287672 258.10615231 -95.5253126 262.761664 -97.21484375 267.54296875 C-98.9307046 272.20818079 -100.90624561 276.78985852 -103.25 281.17578125 C-104.23548041 283.29045797 -104.65847826 285.14529501 -105.0625 287.4375 C-105.89514679 291.4433834 -107.27492529 294.65572068 -109.19140625 298.25 C-110.43347526 300.66594599 -111.35439038 303.17457121 -112.27734375 305.7265625 C-113.50563273 309.04768722 -114.81237477 312.33656243 -116.125 315.625 C-116.38909668 316.28790039 -116.65319336 316.95080078 -116.92529297 317.63378906 C-118.26262804 320.96678866 -119.65389681 324.25312462 -121.1875 327.5 C-123.21186227 331.91831765 -124.63389198 336.50739027 -126.125 341.125 C-128.00519608 346.93764004 -130.06446172 352.31413833 -132.97265625 357.703125 C-135.03059777 361.9116485 -136.40603619 366.36796972 -137.92578125 370.79296875 C-139.06097551 373.8470982 -140.35085054 376.62601729 -141.875 379.5 C-143.923833 383.37997749 -145.01669135 386.9554608 -145.73046875 391.27734375 C-146.1875 393.1875 -146.1875 393.1875 -148.1875 396.1875 C-148.455625 397.198125 -148.72375 398.20875 -149 399.25 C-150.09985821 403.3788328 -152.00541869 406.98296105 -153.953125 410.76953125 C-156.06937958 414.9149793 -157.869133 418.9822535 -159.0625 423.5 C-160.0342013 426.68502093 -161.1561713 429.19666968 -162.6875 432.125 C-164.27458992 435.18350273 -165.51572112 437.94540133 -166.25 441.3125 C-167.15432411 445.05037301 -168.42093142 447.789075 -170.19140625 451.1484375 C-171.17451269 453.16091421 -171.88724101 455.11634143 -172.5625 457.25 C-175.2442669 465.7056257 -178.69523548 473.99532393 -182.375 482.0625 C-183.9615815 485.55427978 -185.172142 489.07922024 -186.3359375 492.73046875 C-187.34806919 495.65079368 -188.5389834 498.46908968 -189.75 501.3125 C-191.09231941 504.4711329 -192.2586539 507.44098576 -193.1875 510.75 C-194.34884543 514.74212493 -196.00756709 518.32526265 -197.7578125 522.08984375 C-201.40052383 529.98238497 -204.92207019 537.91189348 -207.5546875 546.203125 C-208.36573999 548.7464254 -209.2801007 551.24605781 -210.24609375 553.734375 C-211.0374976 555.79662238 -211.79086046 557.87341154 -212.53515625 559.953125 C-213.04349596 561.32320442 -213.55261872 562.69299354 -214.0625 564.0625 C-214.29493408 564.72975098 -214.52736816 565.39700195 -214.7668457 566.08447266 C-215.93843154 569.16584988 -216.71570069 570.90595472 -219.58984375 572.62109375 C-222.11015439 573.17063517 -224.29953033 573.42309875 -226.875 573.375 C-228.02548828 573.36533203 -228.02548828 573.36533203 -229.19921875 573.35546875 C-231.1875 573.1875 -231.1875 573.1875 -233.1875 572.1875 C-233.63557401 566.68997652 -232.1228622 562.96198572 -229.9375 558.0625 C-227.29092754 551.92493117 -224.95826578 545.81350325 -223.01171875 539.41015625 C-222.1875 537.1875 -222.1875 537.1875 -220.1875 535.1875 C-219.43379656 533.33715187 -219.43379656 533.33715187 -218.81640625 531.19921875 C-217.16859368 526.02378228 -215.1760754 521.02684713 -213.125 516 C-210.99435532 510.76526014 -208.95153278 505.55941882 -207.1875 500.1875 C-206.62612828 498.88613827 -206.04353226 497.59367347 -205.4375 496.3125 C-203.20380375 491.38840381 -201.34417864 486.33721314 -199.47192383 481.26855469 C-197.94632216 477.15743948 -196.34305312 473.09830402 -194.625 469.0625 C-192.82424173 464.81662268 -191.2157612 460.53899762 -189.6875 456.1875 C-186.98756241 448.51664927 -183.8634777 441.07407107 -180.64453125 433.609375 C-177.14520108 425.51819607 -177.14520108 425.51819607 -173.9609375 417.30078125 C-170.02360337 406.54271173 -165.79875059 395.88818376 -161.25 385.375 C-158.80601738 379.70520656 -156.52985749 373.99231593 -154.34375 368.21875 C-153.28483231 365.44266848 -152.18346871 362.68896865 -151.0625 359.9375 C-149.84577342 356.9223449 -148.74306652 353.90820456 -147.75 350.8125 C-145.52642448 343.97166385 -142.76465464 337.28339615 -139.5 330.875 C-138.0709245 328.16478314 -138.0709245 328.16478314 -137.3125 324.9375 C-136.37968657 321.82812191 -135.38981195 319.56726709 -133.875 316.75 C-131.59168219 312.35745899 -130.08888633 307.97476877 -128.6875 303.25 C-126.99637297 297.55955926 -125.01146544 292.26414102 -122.44140625 286.8984375 C-120.07304426 281.77805362 -118.18398884 276.46112019 -116.1875 271.1875 C-114.26640624 266.25057155 -112.28632189 261.37120711 -110.0625 256.5625 C-108.53891952 253.19768133 -107.61536565 249.94062062 -106.8046875 246.328125 C-105.78528015 242.79245902 -104.11297187 239.56566047 -102.54296875 236.24609375 C-101.0697451 232.92178794 -99.87073485 229.56272649 -98.6875 226.125 C-96.91477677 221.02911536 -94.86197482 216.31481098 -92.375 211.53515625 C-89.40018246 205.65402025 -87.26943682 199.56978203 -85.4375 193.25 C-82.75252391 184.27177954 -78.9012836 175.7757463 -75.1875 167.1875 C-71.24380724 157.95295774 -67.67164868 148.60220847 -64.1875 139.1875 C-60.24577724 128.53635562 -56.15950634 117.99435324 -51.61328125 107.58203125 C-51.34515625 106.96537598 -51.07703125 106.3487207 -50.80078125 105.71337891 C-50.04469198 103.97760079 -49.2823073 102.24456882 -48.51953125 100.51171875 C-47.15730575 97.1121472 -46.18130211 93.70988731 -45.1875 90.1875 C-44.45022876 88.29905086 -43.67958496 86.42326653 -42.875 84.5625 C-40.5306124 79.06220601 -38.38588093 73.50562465 -36.30078125 67.90234375 C-35.1875 65.1875 -35.1875 65.1875 -33.1875 62.1875 C-32.49066392 60.1978106 -31.83044473 58.19525161 -31.1875 56.1875 C-29.19418329 50.59797965 -27.10788687 45.04110709 -25.03955078 39.47900391 C-24.33513871 37.58455929 -23.63393952 35.68892037 -22.93359375 33.79296875 C-20.30871929 26.81464397 -17.45586039 19.93292422 -14.5625 13.0625 C-14.17787598 12.13646973 -13.79325195 11.21043945 -13.39697266 10.25634766 C-13.02620605 9.3854248 -12.65543945 8.51450195 -12.2734375 7.6171875 C-11.9439209 6.83585449 -11.6144043 6.05452148 -11.27490234 5.24951172 C-8.45206082 -0.10336647 -5.90464709 -0.16251322 0 0 Z " fill="#F9F9F9" transform="translate(289.1875,347.8125)"/>
</svg>
