<svg id="visual" viewBox="0 0 900 600" width="900" height="600" xmlns="http://www.w3.org/2000/svg" xmlns:xlink="http://www.w3.org/1999/xlink" version="1.1"><path d="M0 318L75 318L75 376L150 376L150 330L225 330L225 272L300 272L300 267L375 267L375 308L450 308L450 383L525 383L525 267L600 267L600 345L675 345L675 377L750 377L750 362L825 362L825 340L900 340L900 311L900 0L900 0L825 0L825 0L750 0L750 0L675 0L675 0L600 0L600 0L525 0L525 0L450 0L450 0L375 0L375 0L300 0L300 0L225 0L225 0L150 0L150 0L75 0L75 0L0 0Z" fill="#4c2e8c"></path><path d="M0 281L75 281L75 289L150 289L150 252L225 252L225 223L300 223L300 289L375 289L375 294L450 294L450 231L525 231L525 305L600 305L600 266L675 266L675 209L750 209L750 213L825 213L825 220L900 220L900 203L900 0L900 0L825 0L825 0L750 0L750 0L675 0L675 0L600 0L600 0L525 0L525 0L450 0L450 0L375 0L375 0L300 0L300 0L225 0L225 0L150 0L150 0L75 0L75 0L0 0Z" fill="#3b2778"></path><path d="M0 145L75 145L75 241L150 241L150 218L225 218L225 240L300 240L300 214L375 214L375 253L450 253L450 208L525 208L525 175L600 175L600 205L675 205L675 249L750 249L750 213L825 213L825 153L900 153L900 183L900 0L900 0L825 0L825 0L750 0L750 0L675 0L675 0L600 0L600 0L525 0L525 0L450 0L450 0L375 0L375 0L300 0L300 0L225 0L225 0L150 0L150 0L75 0L75 0L0 0Z" fill="#2c1f65"></path><path d="M0 95L75 95L75 99L150 99L150 84L225 84L225 160L300 160L300 110L375 110L375 148L450 148L450 83L525 83L525 181L600 181L600 167L675 167L675 106L750 106L750 176L825 176L825 141L900 141L900 105L900 0L900 0L825 0L825 0L750 0L750 0L675 0L675 0L600 0L600 0L525 0L525 0L450 0L450 0L375 0L375 0L300 0L300 0L225 0L225 0L150 0L150 0L75 0L75 0L0 0Z" fill="#1e1752"></path><path d="M0 100L75 100L75 27L150 27L150 54L225 54L225 108L300 108L300 43L375 43L375 118L450 118L450 22L525 22L525 48L600 48L600 88L675 88L675 39L750 39L750 92L825 92L825 101L900 101L900 45L900 0L900 0L825 0L825 0L750 0L750 0L675 0L675 0L600 0L600 0L525 0L525 0L450 0L450 0L375 0L375 0L300 0L300 0L225 0L225 0L150 0L150 0L75 0L75 0L0 0Z" fill="#100f40"></path></svg>