<svg id="visual" viewBox="0 0 900 600" width="900" height="600" xmlns="http://www.w3.org/2000/svg" xmlns:xlink="http://www.w3.org/1999/xlink" version="1.1"><path d="M0 102L47 102L47 117L95 117L95 94L142 94L142 127L189 127L189 86L237 86L237 206L284 206L284 175L332 175L332 211L379 211L379 212L426 212L426 196L474 196L474 194L521 194L521 94L568 94L568 142L616 142L616 113L663 113L663 137L711 137L711 93L758 93L758 204L805 204L805 147L853 147L853 195L900 195L900 138L900 0L900 0L853 0L853 0L805 0L805 0L758 0L758 0L711 0L711 0L663 0L663 0L616 0L616 0L568 0L568 0L521 0L521 0L474 0L474 0L426 0L426 0L379 0L379 0L332 0L332 0L284 0L284 0L237 0L237 0L189 0L189 0L142 0L142 0L95 0L95 0L47 0L47 0L0 0Z" fill="#100f40"></path><path d="M0 118L47 118L47 176L95 176L95 141L142 141L142 183L189 183L189 135L237 135L237 162L284 162L284 140L332 140L332 191L379 191L379 108L426 108L426 181L474 181L474 120L521 120L521 140L568 140L568 167L616 167L616 176L663 176L663 131L711 131L711 116L758 116L758 158L805 158L805 146L853 146L853 119L900 119L900 101L900 0L900 0L853 0L853 0L805 0L805 0L758 0L758 0L711 0L711 0L663 0L663 0L616 0L616 0L568 0L568 0L521 0L521 0L474 0L474 0L426 0L426 0L379 0L379 0L332 0L332 0L284 0L284 0L237 0L237 0L189 0L189 0L142 0L142 0L95 0L95 0L47 0L47 0L0 0Z" fill="#161348"></path><path d="M0 172L47 172L47 145L95 145L95 90L142 90L142 170L189 170L189 104L237 104L237 144L284 144L284 129L332 129L332 87L379 87L379 99L426 99L426 95L474 95L474 116L521 116L521 73L568 73L568 80L616 80L616 77L663 77L663 142L711 142L711 132L758 132L758 125L805 125L805 120L853 120L853 159L900 159L900 151L900 0L900 0L853 0L853 0L805 0L805 0L758 0L758 0L711 0L711 0L663 0L663 0L616 0L616 0L568 0L568 0L521 0L521 0L474 0L474 0L426 0L426 0L379 0L379 0L332 0L332 0L284 0L284 0L237 0L237 0L189 0L189 0L142 0L142 0L95 0L95 0L47 0L47 0L0 0Z" fill="#1c1650"></path><path d="M0 110L47 110L47 62L95 62L95 78L142 78L142 110L189 110L189 75L237 75L237 122L284 122L284 131L332 131L332 88L379 88L379 143L426 143L426 93L474 93L474 118L521 118L521 101L568 101L568 121L616 121L616 71L663 71L663 102L711 102L711 115L758 115L758 65L805 65L805 60L853 60L853 132L900 132L900 142L900 0L900 0L853 0L853 0L805 0L805 0L758 0L758 0L711 0L711 0L663 0L663 0L616 0L616 0L568 0L568 0L521 0L521 0L474 0L474 0L426 0L426 0L379 0L379 0L332 0L332 0L284 0L284 0L237 0L237 0L189 0L189 0L142 0L142 0L95 0L95 0L47 0L47 0L0 0Z" fill="#221a58"></path><path d="M0 132L47 132L47 134L95 134L95 71L142 71L142 50L189 50L189 107L237 107L237 52L284 52L284 99L332 99L332 116L379 116L379 118L426 118L426 64L474 64L474 117L521 117L521 84L568 84L568 78L616 78L616 92L663 92L663 128L711 128L711 109L758 109L758 60L805 60L805 99L853 99L853 116L900 116L900 75L900 0L900 0L853 0L853 0L805 0L805 0L758 0L758 0L711 0L711 0L663 0L663 0L616 0L616 0L568 0L568 0L521 0L521 0L474 0L474 0L426 0L426 0L379 0L379 0L332 0L332 0L284 0L284 0L237 0L237 0L189 0L189 0L142 0L142 0L95 0L95 0L47 0L47 0L0 0Z" fill="#291d61"></path><path d="M0 103L47 103L47 79L95 79L95 90L142 90L142 73L189 73L189 113L237 113L237 102L284 102L284 105L332 105L332 96L379 96L379 68L426 68L426 44L474 44L474 109L521 109L521 72L568 72L568 91L616 91L616 104L663 104L663 113L711 113L711 68L758 68L758 87L805 87L805 59L853 59L853 76L900 76L900 89L900 0L900 0L853 0L853 0L805 0L805 0L758 0L758 0L711 0L711 0L663 0L663 0L616 0L616 0L568 0L568 0L521 0L521 0L474 0L474 0L426 0L426 0L379 0L379 0L332 0L332 0L284 0L284 0L237 0L237 0L189 0L189 0L142 0L142 0L95 0L95 0L47 0L47 0L0 0Z" fill="#2f2169"></path><path d="M0 87L47 87L47 69L95 69L95 40L142 40L142 52L189 52L189 45L237 45L237 88L284 88L284 54L332 54L332 83L379 83L379 70L426 70L426 52L474 52L474 39L521 39L521 40L568 40L568 64L616 64L616 54L663 54L663 66L711 66L711 73L758 73L758 47L805 47L805 48L853 48L853 33L900 33L900 46L900 0L900 0L853 0L853 0L805 0L805 0L758 0L758 0L711 0L711 0L663 0L663 0L616 0L616 0L568 0L568 0L521 0L521 0L474 0L474 0L426 0L426 0L379 0L379 0L332 0L332 0L284 0L284 0L237 0L237 0L189 0L189 0L142 0L142 0L95 0L95 0L47 0L47 0L0 0Z" fill="#362472"></path><path d="M0 74L47 74L47 64L95 64L95 37L142 37L142 48L189 48L189 65L237 65L237 56L284 56L284 33L332 33L332 34L379 34L379 50L426 50L426 69L474 69L474 25L521 25L521 51L568 51L568 48L616 48L616 56L663 56L663 58L711 58L711 40L758 40L758 24L805 24L805 62L853 62L853 40L900 40L900 42L900 0L900 0L853 0L853 0L805 0L805 0L758 0L758 0L711 0L711 0L663 0L663 0L616 0L616 0L568 0L568 0L521 0L521 0L474 0L474 0L426 0L426 0L379 0L379 0L332 0L332 0L284 0L284 0L237 0L237 0L189 0L189 0L142 0L142 0L95 0L95 0L47 0L47 0L0 0Z" fill="#3d277b"></path><path d="M0 37L47 37L47 20L95 20L95 48L142 48L142 25L189 25L189 34L237 34L237 17L284 17L284 39L332 39L332 41L379 41L379 50L426 50L426 21L474 21L474 36L521 36L521 30L568 30L568 20L616 20L616 29L663 29L663 38L711 38L711 53L758 53L758 32L805 32L805 21L853 21L853 39L900 39L900 39L900 0L900 0L853 0L853 0L805 0L805 0L758 0L758 0L711 0L711 0L663 0L663 0L616 0L616 0L568 0L568 0L521 0L521 0L474 0L474 0L426 0L426 0L379 0L379 0L332 0L332 0L284 0L284 0L237 0L237 0L189 0L189 0L142 0L142 0L95 0L95 0L47 0L47 0L0 0Z" fill="#442b83"></path><path d="M0 29L47 29L47 29L95 29L95 14L142 14L142 14L189 14L189 31L237 31L237 18L284 18L284 23L332 23L332 31L379 31L379 26L426 26L426 32L474 32L474 23L521 23L521 14L568 14L568 7L616 7L616 6L663 6L663 12L711 12L711 25L758 25L758 7L805 7L805 24L853 24L853 29L900 29L900 7L900 0L900 0L853 0L853 0L805 0L805 0L758 0L758 0L711 0L711 0L663 0L663 0L616 0L616 0L568 0L568 0L521 0L521 0L474 0L474 0L426 0L426 0L379 0L379 0L332 0L332 0L284 0L284 0L237 0L237 0L189 0L189 0L142 0L142 0L95 0L95 0L47 0L47 0L0 0Z" fill="#4c2e8c"></path></svg>