<svg id="visual" viewBox="0 0 1440 600" width="1440" height="600" xmlns="http://www.w3.org/2000/svg" xmlns:xlink="http://www.w3.org/1999/xlink" version="1.1"><path d="M0 267L63 267L63 384L125 384L125 305L188 305L188 184L250 184L250 209L313 209L313 351L376 351L376 416L438 416L438 189L501 189L501 370L563 370L563 271L626 271L626 152L689 152L689 319L751 319L751 227L814 227L814 203L877 203L877 364L939 364L939 254L1002 254L1002 244L1064 244L1064 332L1127 332L1127 278L1190 278L1190 331L1252 331L1252 363L1315 363L1315 163L1377 163L1377 417L1440 417L1440 258L1440 0L1440 0L1377 0L1377 0L1315 0L1315 0L1252 0L1252 0L1190 0L1190 0L1127 0L1127 0L1064 0L1064 0L1002 0L1002 0L939 0L939 0L877 0L877 0L814 0L814 0L751 0L751 0L689 0L689 0L626 0L626 0L563 0L563 0L501 0L501 0L438 0L438 0L376 0L376 0L313 0L313 0L250 0L250 0L188 0L188 0L125 0L125 0L63 0L63 0L0 0Z" fill="#4c2e8c"></path><path d="M0 184L63 184L63 296L125 296L125 202L188 202L188 166L250 166L250 311L313 311L313 347L376 347L376 284L438 284L438 193L501 193L501 335L563 335L563 129L626 129L626 237L689 237L689 128L751 128L751 320L814 320L814 283L877 283L877 147L939 147L939 274L1002 274L1002 151L1064 151L1064 220L1127 220L1127 291L1190 291L1190 142L1252 142L1252 216L1315 216L1315 157L1377 157L1377 225L1440 225L1440 203L1440 0L1440 0L1377 0L1377 0L1315 0L1315 0L1252 0L1252 0L1190 0L1190 0L1127 0L1127 0L1064 0L1064 0L1002 0L1002 0L939 0L939 0L877 0L877 0L814 0L814 0L751 0L751 0L689 0L689 0L626 0L626 0L563 0L563 0L501 0L501 0L438 0L438 0L376 0L376 0L313 0L313 0L250 0L250 0L188 0L188 0L125 0L125 0L63 0L63 0L0 0Z" fill="#442b83"></path><path d="M0 302L63 302L63 125L125 125L125 150L188 150L188 161L250 161L250 248L313 248L313 118L376 118L376 309L438 309L438 180L501 180L501 252L563 252L563 243L626 243L626 265L689 265L689 310L751 310L751 234L814 234L814 231L877 231L877 321L939 321L939 182L1002 182L1002 341L1064 341L1064 204L1127 204L1127 311L1190 311L1190 108L1252 108L1252 234L1315 234L1315 301L1377 301L1377 146L1440 146L1440 186L1440 0L1440 0L1377 0L1377 0L1315 0L1315 0L1252 0L1252 0L1190 0L1190 0L1127 0L1127 0L1064 0L1064 0L1002 0L1002 0L939 0L939 0L877 0L877 0L814 0L814 0L751 0L751 0L689 0L689 0L626 0L626 0L563 0L563 0L501 0L501 0L438 0L438 0L376 0L376 0L313 0L313 0L250 0L250 0L188 0L188 0L125 0L125 0L63 0L63 0L0 0Z" fill="#3d277b"></path><path d="M0 207L63 207L63 141L125 141L125 157L188 157L188 111L250 111L250 251L313 251L313 202L376 202L376 182L438 182L438 237L501 237L501 231L563 231L563 271L626 271L626 244L689 244L689 176L751 176L751 179L814 179L814 108L877 108L877 138L939 138L939 110L1002 110L1002 224L1064 224L1064 223L1127 223L1127 132L1190 132L1190 163L1252 163L1252 225L1315 225L1315 233L1377 233L1377 220L1440 220L1440 207L1440 0L1440 0L1377 0L1377 0L1315 0L1315 0L1252 0L1252 0L1190 0L1190 0L1127 0L1127 0L1064 0L1064 0L1002 0L1002 0L939 0L939 0L877 0L877 0L814 0L814 0L751 0L751 0L689 0L689 0L626 0L626 0L563 0L563 0L501 0L501 0L438 0L438 0L376 0L376 0L313 0L313 0L250 0L250 0L188 0L188 0L125 0L125 0L63 0L63 0L0 0Z" fill="#362472"></path><path d="M0 210L63 210L63 134L125 134L125 245L188 245L188 204L250 204L250 146L313 146L313 78L376 78L376 111L438 111L438 186L501 186L501 229L563 229L563 259L626 259L626 257L689 257L689 217L751 217L751 128L814 128L814 189L877 189L877 127L939 127L939 148L1002 148L1002 240L1064 240L1064 97L1127 97L1127 169L1190 169L1190 123L1252 123L1252 111L1315 111L1315 260L1377 260L1377 128L1440 128L1440 265L1440 0L1440 0L1377 0L1377 0L1315 0L1315 0L1252 0L1252 0L1190 0L1190 0L1127 0L1127 0L1064 0L1064 0L1002 0L1002 0L939 0L939 0L877 0L877 0L814 0L814 0L751 0L751 0L689 0L689 0L626 0L626 0L563 0L563 0L501 0L501 0L438 0L438 0L376 0L376 0L313 0L313 0L250 0L250 0L188 0L188 0L125 0L125 0L63 0L63 0L0 0Z" fill="#2f2169"></path><path d="M0 71L63 71L63 74L125 74L125 171L188 171L188 198L250 198L250 184L313 184L313 86L376 86L376 173L438 173L438 141L501 141L501 166L563 166L563 85L626 85L626 128L689 128L689 101L751 101L751 166L814 166L814 75L877 75L877 112L939 112L939 213L1002 213L1002 90L1064 90L1064 86L1127 86L1127 202L1190 202L1190 106L1252 106L1252 193L1315 193L1315 136L1377 136L1377 67L1440 67L1440 148L1440 0L1440 0L1377 0L1377 0L1315 0L1315 0L1252 0L1252 0L1190 0L1190 0L1127 0L1127 0L1064 0L1064 0L1002 0L1002 0L939 0L939 0L877 0L877 0L814 0L814 0L751 0L751 0L689 0L689 0L626 0L626 0L563 0L563 0L501 0L501 0L438 0L438 0L376 0L376 0L313 0L313 0L250 0L250 0L188 0L188 0L125 0L125 0L63 0L63 0L0 0Z" fill="#291d61"></path><path d="M0 165L63 165L63 97L125 97L125 100L188 100L188 77L250 77L250 75L313 75L313 123L376 123L376 74L438 74L438 87L501 87L501 162L563 162L563 73L626 73L626 98L689 98L689 104L751 104L751 47L814 47L814 154L877 154L877 183L939 183L939 126L1002 126L1002 62L1064 62L1064 103L1127 103L1127 123L1190 123L1190 46L1252 46L1252 137L1315 137L1315 173L1377 173L1377 150L1440 150L1440 61L1440 0L1440 0L1377 0L1377 0L1315 0L1315 0L1252 0L1252 0L1190 0L1190 0L1127 0L1127 0L1064 0L1064 0L1002 0L1002 0L939 0L939 0L877 0L877 0L814 0L814 0L751 0L751 0L689 0L689 0L626 0L626 0L563 0L563 0L501 0L501 0L438 0L438 0L376 0L376 0L313 0L313 0L250 0L250 0L188 0L188 0L125 0L125 0L63 0L63 0L0 0Z" fill="#221a58"></path><path d="M0 151L63 151L63 51L125 51L125 63L188 63L188 99L250 99L250 36L313 36L313 58L376 58L376 140L438 140L438 58L501 58L501 76L563 76L563 124L626 124L626 132L689 132L689 140L751 140L751 136L814 136L814 129L877 129L877 63L939 63L939 124L1002 124L1002 132L1064 132L1064 137L1127 137L1127 31L1190 31L1190 42L1252 42L1252 31L1315 31L1315 39L1377 39L1377 146L1440 146L1440 108L1440 0L1440 0L1377 0L1377 0L1315 0L1315 0L1252 0L1252 0L1190 0L1190 0L1127 0L1127 0L1064 0L1064 0L1002 0L1002 0L939 0L939 0L877 0L877 0L814 0L814 0L751 0L751 0L689 0L689 0L626 0L626 0L563 0L563 0L501 0L501 0L438 0L438 0L376 0L376 0L313 0L313 0L250 0L250 0L188 0L188 0L125 0L125 0L63 0L63 0L0 0Z" fill="#1c1650"></path><path d="M0 82L63 82L63 69L125 69L125 67L188 67L188 93L250 93L250 94L313 94L313 27L376 27L376 73L438 73L438 86L501 86L501 95L563 95L563 69L626 69L626 33L689 33L689 109L751 109L751 18L814 18L814 62L877 62L877 87L939 87L939 112L1002 112L1002 47L1064 47L1064 41L1127 41L1127 19L1190 19L1190 16L1252 16L1252 88L1315 88L1315 112L1377 112L1377 15L1440 15L1440 51L1440 0L1440 0L1377 0L1377 0L1315 0L1315 0L1252 0L1252 0L1190 0L1190 0L1127 0L1127 0L1064 0L1064 0L1002 0L1002 0L939 0L939 0L877 0L877 0L814 0L814 0L751 0L751 0L689 0L689 0L626 0L626 0L563 0L563 0L501 0L501 0L438 0L438 0L376 0L376 0L313 0L313 0L250 0L250 0L188 0L188 0L125 0L125 0L63 0L63 0L0 0Z" fill="#161348"></path><path d="M0 38L63 38L63 34L125 34L125 71L188 71L188 2L250 2L250 49L313 49L313 41L376 41L376 65L438 65L438 23L501 23L501 4L563 4L563 63L626 63L626 72L689 72L689 49L751 49L751 15L814 15L814 62L877 62L877 16L939 16L939 50L1002 50L1002 33L1064 33L1064 24L1127 24L1127 24L1190 24L1190 35L1252 35L1252 31L1315 31L1315 37L1377 37L1377 50L1440 50L1440 17L1440 0L1440 0L1377 0L1377 0L1315 0L1315 0L1252 0L1252 0L1190 0L1190 0L1127 0L1127 0L1064 0L1064 0L1002 0L1002 0L939 0L939 0L877 0L877 0L814 0L814 0L751 0L751 0L689 0L689 0L626 0L626 0L563 0L563 0L501 0L501 0L438 0L438 0L376 0L376 0L313 0L313 0L250 0L250 0L188 0L188 0L125 0L125 0L63 0L63 0L0 0Z" fill="#100f40"></path></svg>