<?xml version="1.0" standalone="no"?>
<!DOCTYPE svg PUBLIC "-//W3C//DTD SVG 20010904//EN"
 "http://www.w3.org/TR/2001/REC-SVG-20010904/DTD/svg10.dtd">
<svg version="1.0" xmlns="http://www.w3.org/2000/svg"
 width="1000.000000pt"   height="416.000000pt" viewBox="0 0 1000.000000 416.000000"
 preserveAspectRatio="xMidYMid meet">

<g transform="translate(0.000000,416.000000) scale(0.100000,-0.100000)"
fill="#000000" stroke="none">
<path fill="#4C2E8C" d="M2699 3340 c-102 -18 -207 -100 -252 -198 -33 -70 -31 -208 3 -277
31 -64 101 -134 165 -165 42 -21 65 -25 140 -25 108 0 159 19 233 89 123 115
140 299 42 441 -69 100 -207 156 -331 135z"/>
<path fill="#4C2E8C" d="M7535 2844 c-249 -52 -443 -198 -545 -409 -58 -119 -74 -190 -74
-330 -1 -96 4 -136 22 -200 75 -261 278 -459 537 -525 106 -27 264 -27 368 0
262 67 472 275 543 540 24 89 24 281 0 370 -25 94 -88 217 -150 292 -99 120
-259 218 -413 252 -66 15 -236 20 -288 10z"/>
<path fill="#4C2E8C" d="M5450 2609 c-352 -40 -666 -262 -825 -584 -201 -405 -134 -870 176
-1209 114 -125 319 -249 489 -295 594 -164 1206 211 1331 814 23 110 25 301 5
407 -90 468 -465 814 -939 867 -107 12 -129 12 -237 0z"/>
<path fill="#4C2E8C" d="M1064 2020 c-212 -32 -385 -186 -439 -391 -19 -71 -19 -200 0 -274
44 -168 176 -308 346 -365 341 -116 699 143 699 505 0 319 -293 573 -606 525z"/>
</g>
</svg>
