<svg id="visual" viewBox="0 0 1440 600" width="1440" height="600" xmlns="http://www.w3.org/2000/svg" xmlns:xlink="http://www.w3.org/1999/xlink" version="1.1"><path d="M0 110L85 110L85 324L169 324L169 324L254 324L254 126L339 126L339 280L424 280L424 222L508 222L508 299L593 299L593 158L678 158L678 235L762 235L762 356L847 356L847 104L932 104L932 371L1016 371L1016 300L1101 300L1101 131L1186 131L1186 168L1271 168L1271 170L1355 170L1355 203L1440 203L1440 290L1440 601L1440 601L1355 601L1355 601L1271 601L1271 601L1186 601L1186 601L1101 601L1101 601L1016 601L1016 601L932 601L932 601L847 601L847 601L762 601L762 601L678 601L678 601L593 601L593 601L508 601L508 601L424 601L424 601L339 601L339 601L254 601L254 601L169 601L169 601L85 601L85 601L0 601Z" fill="#4c2e8c"></path><path d="M0 283L85 283L85 236L169 236L169 372L254 372L254 389L339 389L339 163L424 163L424 420L508 420L508 345L593 345L593 190L678 190L678 189L762 189L762 327L847 327L847 411L932 411L932 126L1016 126L1016 169L1101 169L1101 399L1186 399L1186 249L1271 249L1271 229L1355 229L1355 435L1440 435L1440 123L1440 601L1440 601L1355 601L1355 601L1271 601L1271 601L1186 601L1186 601L1101 601L1101 601L1016 601L1016 601L932 601L932 601L847 601L847 601L762 601L762 601L678 601L678 601L593 601L593 601L508 601L508 601L424 601L424 601L339 601L339 601L254 601L254 601L169 601L169 601L85 601L85 601L0 601Z" fill="#462b85"></path><path d="M0 435L85 435L85 445L169 445L169 287L254 287L254 341L339 341L339 237L424 237L424 423L508 423L508 352L593 352L593 226L678 226L678 442L762 442L762 343L847 343L847 329L932 329L932 309L1016 309L1016 200L1101 200L1101 388L1186 388L1186 287L1271 287L1271 200L1355 200L1355 279L1440 279L1440 279L1440 601L1440 601L1355 601L1355 601L1271 601L1271 601L1186 601L1186 601L1101 601L1101 601L1016 601L1016 601L932 601L932 601L847 601L847 601L762 601L762 601L678 601L678 601L593 601L593 601L508 601L508 601L424 601L424 601L339 601L339 601L254 601L254 601L169 601L169 601L85 601L85 601L0 601Z" fill="#40297e"></path><path d="M0 349L85 349L85 228L169 228L169 474L254 474L254 366L339 366L339 312L424 312L424 455L508 455L508 367L593 367L593 381L678 381L678 312L762 312L762 235L847 235L847 250L932 250L932 327L1016 327L1016 258L1101 258L1101 341L1186 341L1186 405L1271 405L1271 262L1355 262L1355 270L1440 270L1440 372L1440 601L1440 601L1355 601L1355 601L1271 601L1271 601L1186 601L1186 601L1101 601L1101 601L1016 601L1016 601L932 601L932 601L847 601L847 601L762 601L762 601L678 601L678 601L593 601L593 601L508 601L508 601L424 601L424 601L339 601L339 601L254 601L254 601L169 601L169 601L85 601L85 601L0 601Z" fill="#3a2677"></path><path d="M0 394L85 394L85 464L169 464L169 307L254 307L254 242L339 242L339 482L424 482L424 292L508 292L508 308L593 308L593 434L678 434L678 294L762 294L762 400L847 400L847 247L932 247L932 338L1016 338L1016 388L1101 388L1101 320L1186 320L1186 298L1271 298L1271 488L1355 488L1355 414L1440 414L1440 465L1440 601L1440 601L1355 601L1355 601L1271 601L1271 601L1186 601L1186 601L1101 601L1101 601L1016 601L1016 601L932 601L932 601L847 601L847 601L762 601L762 601L678 601L678 601L593 601L593 601L508 601L508 601L424 601L424 601L339 601L339 601L254 601L254 601L169 601L169 601L85 601L85 601L0 601Z" fill="#342370"></path><path d="M0 504L85 504L85 456L169 456L169 383L254 383L254 309L339 309L339 489L424 489L424 352L508 352L508 313L593 313L593 324L678 324L678 495L762 495L762 468L847 468L847 353L932 353L932 431L1016 431L1016 331L1101 331L1101 348L1186 348L1186 283L1271 283L1271 293L1355 293L1355 329L1440 329L1440 494L1440 601L1440 601L1355 601L1355 601L1271 601L1271 601L1186 601L1186 601L1101 601L1101 601L1016 601L1016 601L932 601L932 601L847 601L847 601L762 601L762 601L678 601L678 601L593 601L593 601L508 601L508 601L424 601L424 601L339 601L339 601L254 601L254 601L169 601L169 601L85 601L85 601L0 601Z" fill="#2f2069"></path><path d="M0 521L85 521L85 464L169 464L169 409L254 409L254 403L339 403L339 487L424 487L424 454L508 454L508 394L593 394L593 489L678 489L678 524L762 524L762 521L847 521L847 447L932 447L932 371L1016 371L1016 323L1101 323L1101 456L1186 456L1186 462L1271 462L1271 399L1355 399L1355 395L1440 395L1440 487L1440 601L1440 601L1355 601L1355 601L1271 601L1271 601L1186 601L1186 601L1101 601L1101 601L1016 601L1016 601L932 601L932 601L847 601L847 601L762 601L762 601L678 601L678 601L593 601L593 601L508 601L508 601L424 601L424 601L339 601L339 601L254 601L254 601L169 601L169 601L85 601L85 601L0 601Z" fill="#291e62"></path><path d="M0 510L85 510L85 409L169 409L169 416L254 416L254 530L339 530L339 470L424 470L424 440L508 440L508 374L593 374L593 512L678 512L678 519L762 519L762 398L847 398L847 423L932 423L932 501L1016 501L1016 448L1101 448L1101 400L1186 400L1186 463L1271 463L1271 379L1355 379L1355 447L1440 447L1440 522L1440 601L1440 601L1355 601L1355 601L1271 601L1271 601L1186 601L1186 601L1101 601L1101 601L1016 601L1016 601L932 601L932 601L847 601L847 601L762 601L762 601L678 601L678 601L593 601L593 601L508 601L508 601L424 601L424 601L339 601L339 601L254 601L254 601L169 601L169 601L85 601L85 601L0 601Z" fill="#241b5b"></path><path d="M0 482L85 482L85 413L169 413L169 401L254 401L254 450L339 450L339 475L424 475L424 452L508 452L508 432L593 432L593 466L678 466L678 531L762 531L762 511L847 511L847 458L932 458L932 451L1016 451L1016 439L1101 439L1101 451L1186 451L1186 471L1271 471L1271 515L1355 515L1355 405L1440 405L1440 476L1440 601L1440 601L1355 601L1355 601L1271 601L1271 601L1186 601L1186 601L1101 601L1101 601L1016 601L1016 601L932 601L932 601L847 601L847 601L762 601L762 601L678 601L678 601L593 601L593 601L508 601L508 601L424 601L424 601L339 601L339 601L254 601L254 601L169 601L169 601L85 601L85 601L0 601Z" fill="#1f1854"></path><path d="M0 557L85 557L85 451L169 451L169 531L254 531L254 448L339 448L339 449L424 449L424 527L508 527L508 537L593 537L593 567L678 567L678 453L762 453L762 501L847 501L847 552L932 552L932 510L1016 510L1016 553L1101 553L1101 558L1186 558L1186 531L1271 531L1271 470L1355 470L1355 549L1440 549L1440 534L1440 601L1440 601L1355 601L1355 601L1271 601L1271 601L1186 601L1186 601L1101 601L1101 601L1016 601L1016 601L932 601L932 601L847 601L847 601L762 601L762 601L678 601L678 601L593 601L593 601L508 601L508 601L424 601L424 601L339 601L339 601L254 601L254 601L169 601L169 601L85 601L85 601L0 601Z" fill="#1a154d"></path><path d="M0 558L85 558L85 498L169 498L169 507L254 507L254 556L339 556L339 531L424 531L424 520L508 520L508 533L593 533L593 513L678 513L678 527L762 527L762 570L847 570L847 525L932 525L932 567L1016 567L1016 581L1101 581L1101 566L1186 566L1186 484L1271 484L1271 532L1355 532L1355 560L1440 560L1440 495L1440 601L1440 601L1355 601L1355 601L1271 601L1271 601L1186 601L1186 601L1101 601L1101 601L1016 601L1016 601L932 601L932 601L847 601L847 601L762 601L762 601L678 601L678 601L593 601L593 601L508 601L508 601L424 601L424 601L339 601L339 601L254 601L254 601L169 601L169 601L85 601L85 601L0 601Z" fill="#151247"></path><path d="M0 521L85 521L85 521L169 521L169 530L254 530L254 550L339 550L339 566L424 566L424 548L508 548L508 546L593 546L593 568L678 568L678 577L762 577L762 567L847 567L847 564L932 564L932 556L1016 556L1016 572L1101 572L1101 545L1186 545L1186 541L1271 541L1271 595L1355 595L1355 538L1440 538L1440 539L1440 601L1440 601L1355 601L1355 601L1271 601L1271 601L1186 601L1186 601L1101 601L1101 601L1016 601L1016 601L932 601L932 601L847 601L847 601L762 601L762 601L678 601L678 601L593 601L593 601L508 601L508 601L424 601L424 601L339 601L339 601L254 601L254 601L169 601L169 601L85 601L85 601L0 601Z" fill="#100f40"></path></svg>