<svg id="visual" viewBox="0 0 1440 600" width="1440" height="600" xmlns="http://www.w3.org/2000/svg" xmlns:xlink="http://www.w3.org/1999/xlink" version="1.1"><path d="M0 157L120 157L120 67L240 67L240 49L360 49L360 127L480 127L480 169L600 169L600 79L720 79L720 73L840 73L840 121L960 121L960 61L1080 61L1080 139L1200 139L1200 49L1320 49L1320 97L1440 97L1440 229L1440 0L1440 0L1320 0L1320 0L1200 0L1200 0L1080 0L1080 0L960 0L960 0L840 0L840 0L720 0L720 0L600 0L600 0L480 0L480 0L360 0L360 0L240 0L240 0L120 0L120 0L0 0Z" fill="#100f40"></path><path d="M0 235L120 235L120 193L240 193L240 223L360 223L360 307L480 307L480 259L600 259L600 235L720 235L720 253L840 253L840 343L960 343L960 307L1080 307L1080 247L1200 247L1200 163L1320 163L1320 277L1440 277L1440 277L1440 227L1440 95L1320 95L1320 47L1200 47L1200 137L1080 137L1080 59L960 59L960 119L840 119L840 71L720 71L720 77L600 77L600 167L480 167L480 125L360 125L360 47L240 47L240 65L120 65L120 155L0 155Z" fill="#171349"></path><path d="M0 283L120 283L120 283L240 283L240 301L360 301L360 355L480 355L480 379L600 379L600 283L720 283L720 343L840 343L840 409L960 409L960 325L1080 325L1080 349L1200 349L1200 253L1320 253L1320 343L1440 343L1440 307L1440 275L1440 275L1320 275L1320 161L1200 161L1200 245L1080 245L1080 305L960 305L960 341L840 341L840 251L720 251L720 233L600 233L600 257L480 257L480 305L360 305L360 221L240 221L240 191L120 191L120 233L0 233Z" fill="#1e1752"></path><path d="M0 319L120 319L120 343L240 343L240 361L360 361L360 379L480 379L480 403L600 403L600 313L720 313L720 361L840 361L840 451L960 451L960 385L1080 385L1080 367L1200 367L1200 301L1320 301L1320 367L1440 367L1440 349L1440 305L1440 341L1320 341L1320 251L1200 251L1200 347L1080 347L1080 323L960 323L960 407L840 407L840 341L720 341L720 281L600 281L600 377L480 377L480 353L360 353L360 299L240 299L240 281L120 281L120 281L0 281Z" fill="#251b5c"></path><path d="M0 391L120 391L120 391L240 391L240 415L360 415L360 433L480 433L480 445L600 445L600 349L720 349L720 439L840 439L840 463L960 463L960 403L1080 403L1080 379L1200 379L1200 343L1320 343L1320 433L1440 433L1440 361L1440 347L1440 365L1320 365L1320 299L1200 299L1200 365L1080 365L1080 383L960 383L960 449L840 449L840 359L720 359L720 311L600 311L600 401L480 401L480 377L360 377L360 359L240 359L240 341L120 341L120 317L0 317Z" fill="#2c1f65"></path><path d="M0 487L120 487L120 475L240 475L240 463L360 463L360 505L480 505L480 517L600 517L600 451L720 451L720 541L840 541L840 529L960 529L960 529L1080 529L1080 475L1200 475L1200 445L1320 445L1320 469L1440 469L1440 487L1440 359L1440 431L1320 431L1320 341L1200 341L1200 377L1080 377L1080 401L960 401L960 461L840 461L840 437L720 437L720 347L600 347L600 443L480 443L480 431L360 431L360 413L240 413L240 389L120 389L120 389L0 389Z" fill="#34236f"></path><path d="M0 517L120 517L120 535L240 535L240 529L360 529L360 553L480 553L480 535L600 535L600 523L720 523L720 553L840 553L840 577L960 577L960 541L1080 541L1080 535L1200 535L1200 529L1320 529L1320 481L1440 481L1440 553L1440 485L1440 467L1320 467L1320 443L1200 443L1200 473L1080 473L1080 527L960 527L960 527L840 527L840 539L720 539L720 449L600 449L600 515L480 515L480 503L360 503L360 461L240 461L240 473L120 473L120 485L0 485Z" fill="#3b2778"></path><path d="M0 565L120 565L120 583L240 583L240 577L360 577L360 565L480 565L480 589L600 589L600 565L720 565L720 559L840 559L840 589L960 589L960 571L1080 571L1080 577L1200 577L1200 547L1320 547L1320 535L1440 535L1440 571L1440 551L1440 479L1320 479L1320 527L1200 527L1200 533L1080 533L1080 539L960 539L960 575L840 575L840 551L720 551L720 521L600 521L600 533L480 533L480 551L360 551L360 527L240 527L240 533L120 533L120 515L0 515Z" fill="#442a82"></path><path d="M0 601L120 601L120 601L240 601L240 601L360 601L360 601L480 601L480 601L600 601L600 601L720 601L720 601L840 601L840 601L960 601L960 601L1080 601L1080 601L1200 601L1200 601L1320 601L1320 601L1440 601L1440 601L1440 569L1440 533L1320 533L1320 545L1200 545L1200 575L1080 575L1080 569L960 569L960 587L840 587L840 557L720 557L720 563L600 563L600 587L480 587L480 563L360 563L360 575L240 575L240 581L120 581L120 563L0 563Z" fill="#4c2e8c"></path></svg>